<?xml version="1.0" encoding="UTF-8"?>
<svg id="Layer_2" xmlns="http://www.w3.org/2000/svg" viewBox="0 0 375.42 510.42">
  <defs>
    <style>
      .cls-1 {
        fill: none;
      }

      .cls-2 {
        fill: #f9f6f5;
      }

      .cls-3 {
        fill: #15ffd2;
      }

      .cls-4 {
        fill: #fa39ff;
      }

      .cls-5 {
        fill: #f680ff;
      }

      .cls-6 {
        fill: #d9fff8;
      }

      .cls-7 {
        fill: #0f0f0f;
      }
    </style>
  </defs>
  <g id="Layer_1-2" data-name="Layer_1">
    <g>
      <g>
        <g>
          <path class="cls-2" d="M26.56,202.5c-7.64,0-12.34-4.24-12.34-11.43,0-5,2.42-8.25,3.94-10.07,1.67-1.89,3.1-1.97,5.37-.76,2.27,1.14,2.95,2.04,1.67,4.09-.83,1.36-2.12,3.03-2.12,5.53,0,3.03,1.44,4.09,3.25,4.09,3.71,0,4.84-2.19,4.84-7.42,0-6.96-.23-13.85-.23-20.96,0-2.57.08-5,.08-7.11h-6.36c-4.84,0-7.27.91-7.27,3.78,0,3.25,2.35,4.69,3.48,5.9,1.44,1.36.76,3.03-.76,4.62-1.67,1.74-4.01,2.2-6.13.53-2.27-1.59-5.75-5-5.75-11.66,0-7.11,5.6-12.11,15.36-12.11,2.8,0,5.52,0,8.02-.08.45-2.35,1.74-3.1,5.52-2.95,3.25.15,4.47.68,4.62,2.65,3.63-.08,6.96-.23,9.84-.38,3.71-.15,4.47.83,4.62,4.16.23,3.48-1.06,4.54-4.31,4.84-2.72.3-6.36.45-10.52.53-.08,2.2-.15,4.62-.15,7.27,0,7.11.23,13.55.23,21.27,0,9.99-5.3,15.67-14.91,15.67Z"/>
          <path class="cls-2" d="M71.06,171.09c5.15-.08,11.5-.15,17.48-.15.08-6.74.15-13.17.15-18.92,0-2.5,1.59-3.33,5.68-3.33,3.1,0,4.47.61,4.47,3.25,0,6.36-.08,12.64-.08,18.92h1.36c2.65,0,3.41.61,3.48,4.31,0,3.25-.45,4.31-3.18,4.31h-1.82c0,6.36-.08,12.71-.08,19.15,0,2.72-1.44,3.71-5.37,3.71s-4.92-.98-4.92-3.86c0-6.36.08-12.71.15-18.84-5.83.08-12.11.15-17.33.23-.08,5.98-.08,12.18-.08,18.54,0,2.72-1.51,3.56-5.37,3.63-3.56.15-4.92-.68-4.92-3.94,0-16.95.38-33.45.38-46.02,0-2.5,1.06-3.41,5.52-3.41,4.01,0,4.54.83,4.54,3.25,0,6.43,0,12.71-.08,19.15Z"/>
          <path class="cls-2" d="M140.92,165.72c-1.06,1.36-2.04,1.74-4.77.91-2.12-.68-3.1-1.89-2.72-3.03.38-1.06.68-1.51.68-2.65,0-2.57-2.12-4.24-5.9-4.24-4.84,0-8.25,2.27-8.25,6.28,0,4.69,2.19,7.57,7.04,8.93,1.89-.3,3.94-.45,5.98-.45,2.57,0,3.86.23,3.56,4.54-.23,3.63-1.06,4.01-3.86,4.01-2.27,0-4.39-.23-6.36-.61-5.3,1.44-7.95,4.01-7.95,7.64,0,4.24,3.03,6.51,7.95,6.51,6.43,0,10.22-1.82,13.02-4.24,1.82-1.59,3.1-1.74,5.07.61,1.74,1.97,2.5,3.48.45,5.68-3.48,3.71-9.99,6.74-19.3,6.74-10.97,0-17.26-5.07-17.26-14.08,0-5.45,3.33-9.91,8.48-12.87-3.86-2.95-6.13-7.27-6.13-12.64,0-8.63,7.42-14.23,17.79-14.23,9.38,0,14,5.07,14,11.28,0,2.88-.61,4.69-1.51,5.9Z"/>
        </g>
        <g>
          <path class="cls-2" d="M58.42,282.67c-7.91,0-14.6-1.22-20.53-3.5-.61,4.11-1.06,8.51-1.06,13.53,0,21.44,6.84,32.69,24.94,32.69,12.92,0,20.07-6.08,24.63-10.64,3.5-3.95,7-3.34,10.04.3,3.65,4.41,3.95,8.36.91,12.47-5.17,6.84-17.18,15.66-36.04,15.66-29.5,0-44.86-17.79-44.86-49.42,0-9.73,1.37-18.25,3.95-25.54-5.47-5.17-9.43-11.25-12.47-16.88-2.13-4.26-1.67-7.45,2.89-10.34,5.47-3.19,7.75-3.34,9.58-.46,2.58,4.11,5.02,8.36,8.06,12.32,9.28-12.16,23.11-18.4,38.17-18.4,16.88,0,28.89,8.06,28.89,22.96s-14.14,25.24-37.1,25.24ZM43.21,264.42c4.41,1.67,9.73,2.74,16.42,2.74,11.56,0,17.33-3.95,17.33-8.51s-3.95-7.3-10.49-7.3c-8.67,0-17.49,3.65-23.26,13.08Z"/>
          <path class="cls-2" d="M176.87,291.34h1.37c7.45,0,9.43,1.37,9.73,7.45.3,6.54-1.67,8.36-7.3,8.82,1.83,8.36,3.65,16.73,5.17,25.24.91,5.63.3,8.82-8.21,9.88-9.12,1.22-10.95-.15-12.01-7.3-1.52-9.28-3.35-18.25-5.17-27.07-8.36.15-17.49.3-25.39.3-1.37,0-2.58,0-3.8-.15-1.67,7.75-3.35,15.66-5.02,25.09-1.22,6.69-2.43,8.82-11.1,8.06-7.75-.61-8.82-4.71-7.75-10.49,3.65-19.46,6.84-33.45,11.86-49.72,4.26-14.45,9.58-28.28,13.38-36.49,3.65-7.45,5.17-9.88,15.36-9.88,7.6,0,9.58.91,12.77,7.45,4.41,8.67,9.43,23.42,13.38,38.17.91,3.5,1.82,6.99,2.74,10.64ZM135.21,292.1c7.75,0,14.9-.15,21.44-.3-.15-1.22-.46-2.28-.76-3.5-2.89-12.62-5.32-22.66-8.97-34.52-3.8,10.19-6.99,20.22-10.64,34.06-.3,1.52-.76,2.89-1.06,4.26Z"/>
          <path class="cls-2" d="M277.83,340.14c-5.17,4.56-10.04,4.71-14.29.91-5.02-4.87-9.88-12.01-15.36-23.87-5.47-11.71-9.73-18.55-15.66-22.05-2.89.91-6.08,1.67-9.73,1.98-.15,12.92-.46,25.7-.76,38.17-.15,5.02-2.58,7.3-10.64,6.99-8.52-.3-10.34-1.98-10.19-8.82.76-33,1.67-65.84,1.67-89.71,0-6.54,1.52-8.36,11.71-8.36,7.3,0,8.82,2.74,8.82,6.99,0,11.56-.15,23.72-.3,36.19,2.89-.15,5.47,0,7.91.3,4.26-3.65,8.21-9.28,14.45-18.25,6.23-8.82,9.43-14.14,13.08-20.38,3.19-5.47,6.23-6.54,12.01-3.95,6.23,2.74,8.06,6.54,5.63,11.56-3.5,6.54-7.91,13.99-14.14,22.35-4.41,5.93-8.51,10.95-12.77,14.75,6.84,4.87,12.01,12.32,17.18,22.81,4.56,9.43,8.06,14.29,13.68,20.07,4.11,3.95,3.19,7.3-2.28,12.32Z"/>
          <path class="cls-2" d="M353.86,269.44c-2.13,2.74-4.11,3.5-9.58,1.82-4.26-1.37-6.23-3.8-5.47-6.08.76-2.13,1.37-3.04,1.37-5.32,0-5.17-4.26-8.51-11.86-8.51-9.73,0-16.57,4.56-16.57,12.62,0,9.43,4.41,15.21,14.14,17.94,3.8-.61,7.91-.91,12.01-.91,5.17,0,7.75.46,7.15,9.12-.46,7.3-2.13,8.06-7.75,8.06-4.56,0-8.82-.46-12.77-1.22-10.64,2.89-15.97,8.06-15.97,15.36,0,8.51,6.08,13.08,15.97,13.08,12.92,0,20.53-3.65,26.15-8.51,3.65-3.19,6.23-3.5,10.19,1.22,3.5,3.95,5.02,6.99.91,11.4-6.99,7.45-20.07,13.53-38.77,13.53-22.05,0-34.67-10.19-34.67-28.28,0-10.95,6.69-19.92,17.03-25.85-7.75-5.93-12.32-14.6-12.32-25.39,0-17.33,14.9-28.59,35.73-28.59,18.85,0,28.13,10.19,28.13,22.66,0,5.78-1.22,9.43-3.04,11.86Z"/>
        </g>
        <g>
          <path class="cls-2" d="M30.71,389.38c-8.82,1.98-12.62,5.63-12.62,11.25,0,6.54,3.8,7.91,5.63,9.73,2.89,2.58,2.13,5.78-.61,9.12-3.35,3.95-7.6,4.87-12.01,1.98-4.71-2.74-9.73-9.12-9.73-20.68,0-19.16,18.09-30.11,51.24-30.11,27.98,0,42.42,11.56,42.42,32.24,0,12.77-5.63,22.05-15.97,27.83,3.04,3.65,5.47,8.67,8.06,15.36,5.32,13.38,6.54,15.05,10.34,15.05,3.04,0,4.41-2.58,5.93-4.26,2.13-2.58,4.87-2.58,8.36.76,4.11,3.95,4.11,6.84,1.37,11.25-2.74,4.26-7.91,10.04-18.4,10.04s-17.03-3.8-22.81-19.46c-4.56-12.32-6.99-19.16-10.64-22.81-3.65.61-7.6,1.06-11.71,1.22-.15,10.34-.15,20.68-.15,31.17,0,5.63-1.37,8.21-10.49,8.21-7.6,0-9.28-1.67-9.28-8.36,0-29.8.76-57.63,1.06-79.52ZM50.03,387.71c-.15,11.4-.3,22.81-.3,34.06,5.63-.15,10.49,0,14.44.61,7.6-3.34,11.25-8.67,11.25-17.94,0-11.4-6.23-16.73-23.42-16.73h-1.98Z"/>
          <path class="cls-2" d="M159.5,478.33c-28.43,0-43.64-17.94-43.64-52.31,0-23.11,7.45-37.1,20.22-44.25,6.69-7.45,17.03-11.86,30.11-11.86,25.7,0,39.69,18.09,39.69,51.55,0,36.34-16.73,56.87-46.38,56.87ZM159.5,460.24c16.57,0,25.7-12.92,25.7-36.34s-8.21-36.49-23.72-36.49c-4.71,0-8.97.76-12.77,2.13-7.91,5.93-12.32,15.97-12.32,33.76,0,24.79,6.69,36.95,23.11,36.95Z"/>
          <path class="cls-2" d="M280.84,406.11c-1.83,3.8-5.17,6.08-10.8,3.95-5.47-2.13-6.54-3.95-5.17-8.36.76-2.28,1.37-4.11,1.37-6.39,0-4.87-2.89-9.88-10.95-9.88-9.58,0-14.29,4.41-14.29,11.25,0,22.96,44.55,22.2,44.55,53.98,0,16.12-11.71,27.22-32.08,27.22-23.42,0-34.21-14.75-37.25-26.31-1.06-3.95-.15-7.3,7.15-10.04,7.45-2.89,8.67,1.67,11.1,6.84,1.83,3.65,7.15,12.77,18.55,12.77,7.15,0,12.62-2.43,12.62-9.88,0-19.16-43.18-20.07-43.18-53.07,0-20.38,16.12-28.28,32.08-28.28,17.03,0,28.59,9.43,28.59,24.48,0,5.78-.76,8.67-2.28,11.71Z"/>
          <path class="cls-2" d="M362.95,404.74c-2.13,2.74-4.11,3.5-9.58,1.82-4.26-1.37-6.23-3.8-5.47-6.08.76-2.13,1.37-3.04,1.37-5.32,0-5.17-4.26-8.51-11.86-8.51-9.73,0-16.57,4.56-16.57,12.62,0,9.43,4.41,15.21,14.14,17.94,3.8-.61,7.91-.91,12.01-.91,5.17,0,7.75.46,7.15,9.12-.46,7.3-2.13,8.06-7.75,8.06-4.56,0-8.82-.46-12.77-1.22-10.64,2.89-15.97,8.06-15.97,15.36,0,8.51,6.08,13.08,15.97,13.08,12.92,0,20.53-3.65,26.15-8.51,3.65-3.19,6.23-3.5,10.19,1.22,3.5,3.95,5.02,6.99.91,11.4-6.99,7.45-20.07,13.53-38.77,13.53-22.05,0-34.67-10.19-34.67-28.28,0-10.95,6.69-19.92,17.03-25.85-7.75-5.93-12.32-14.6-12.32-25.39,0-17.33,14.9-28.59,35.73-28.59,18.85,0,28.13,10.19,28.13,22.66,0,5.78-1.22,9.43-3.04,11.86Z"/>
        </g>
      </g>
      <g>
        <path class="cls-2" d="M266.4,214.66c-.75,0-1.51,0-2.26-.03-1.7-.04-3.49-.12-5.27-.25-.89-.06-1.79-.15-2.69-.24-.89-.09-1.77-.19-2.66-.3-50.27-6.43-88.18-49.51-88.18-100.23,0-24.09,8.57-47.26,24.2-65.55v-18.89c0-5.46,4.43-9.89,9.88-9.89,1.09,0,2.16.18,3.2.53l1.41.48c4.53,1.55,8.93,3.26,13.13,5.11.49-.28.99-.55,1.5-.82v-5.38c0-5.47,4.43-9.9,9.88-9.9,1.09,0,2.16.18,3.2.53l1.41.48c3.46,1.18,6.8,2.52,10,3.98,5.27-5.16,11.42-9.52,18.31-12.99l.47-.24c1.36-.69,2.91-1.06,4.45-1.06s3.08.37,4.45,1.06l.47.24c6.88,3.46,13.03,7.82,18.32,13,3.18-1.46,6.53-2.79,10-3.98l1.41-.48c1.04-.36,2.12-.53,3.2-.53,5.45,0,9.89,4.44,9.89,9.89v5.39c.5.27,1,.54,1.5.82,4.16-1.84,8.56-3.55,13.12-5.11l1.41-.48c1.02-.35,2.11-.53,3.2-.53,5.45,0,9.89,4.44,9.89,9.89v18.92c15.62,18.27,24.2,41.43,24.2,65.53s-8.05,45.75-22.66,63.7c-14.4,17.68-34.5,30.11-56.62,34.98-1.77.39-3.57.74-5.36,1.03-.89.15-1.8.29-2.71.41-.85.12-1.77.23-2.69.33-3.55.4-7.27.6-11.01.6Z"/>
        <g>
          <path class="cls-1" d="M253.11,185.56l-.63.09c-1.23.18-2.46.27-3.67.27-4.31,0-8.43-1.11-12.05-3.08-1.1.15-2.21.22-3.32.22-3.74,0-7.47-.84-10.94-2.51-6.1-2.93-10.69-8.06-12.93-14.44l-17.41-49.58c-2.48-7.06,1.11-14.8,8.01-17.51-1.37-4.77-2.1-9.81-2.1-15.02v-25.2c-12.07,15.02-19.3,34.08-19.3,54.81,0,44.33,33.08,81.08,75.85,86.85v-14.68c-.5-.06-1-.13-1.5-.22Z"/>
          <path class="cls-1" d="M227.17,35.25c-1.46.73-2.9,1.51-4.32,2.32,1.47.78,2.91,1.57,4.32,2.39v-4.71Z"/>
          <path class="cls-1" d="M332.64,99.03c6.9,2.72,10.49,10.46,8.01,17.51l-17.41,49.58c-2.24,6.38-6.83,11.51-12.93,14.44-3.47,1.67-7.2,2.51-10.94,2.51-1.11,0-2.21-.08-3.32-.22-2.96,1.61-6.26,2.65-9.71,2.97v13.16c38.75-9.04,67.71-43.88,67.71-85.36,0-20.72-7.23-39.79-19.3-54.81v25.2c0,5.21-.73,10.25-2.1,15.02Z"/>
          <path class="cls-1" d="M309.95,37.57c-1.41-.81-2.86-1.58-4.32-2.32v4.71c1.41-.82,2.85-1.61,4.32-2.39Z"/>
        </g>
        <path class="cls-5" d="M253.76,30.25c1.66-1.41,3.41-2.73,5.23-3.97,2.34-1.59,4.8-3.05,7.4-4.36,2.6,1.31,5.07,2.77,7.4,4.36,1.82,1.24,3.57,2.56,5.23,3.97,1.26-.93,2.56-1.84,3.92-2.71.16-.1.33-.2.5-.31-1.68-1.93-3.48-3.74-5.41-5.43-3.49-3.06-7.38-5.72-11.65-7.97-4.27,2.25-8.16,4.92-11.65,7.97-1.93,1.69-3.72,3.5-5.41,5.43.16.1.33.2.5.31,1.36.87,2.66,1.78,3.92,2.71Z"/>
        <path class="cls-5" d="M238.98,33.31c.7.39,1.39.8,2.07,1.21.7.43,1.4.86,2.08,1.3,1.06.69,2.09,1.41,3.09,2.14,5.69,4.17,10.41,9.01,14.15,14.57.94-1.95,1.97-3.84,3.11-5.65-.04-.05-.07-.11-.11-.16-3.52-4.92-7.95-9.28-13.26-13.08-1.23-.88-2.51-1.73-3.83-2.55-.69-.43-1.4-.85-2.12-1.26-.39-.23-.8-.44-1.2-.66-.31-.17-.61-.34-.92-.51-1.75-.93-3.57-1.81-5.46-2.64-1.46-.65-2.96-1.27-4.5-1.85v5.69c1.22.55,2.41,1.12,3.57,1.7,1.14.57,2.26,1.16,3.34,1.77Z"/>
        <path class="cls-5" d="M269.43,46.72c-.04.05-.07.11-.11.16-.51.73-1.01,1.47-1.48,2.22-.5.79-.98,1.59-1.44,2.41-1.11,1.97-2.1,4.02-2.97,6.16-1.51,3.71-2.66,7.68-3.46,11.89,1.22,1.78,2.38,3.6,3.47,5.47.71-3.77,1.7-7.33,2.95-10.7.86-2.31,1.85-4.52,2.97-6.65.48-.92.98-1.83,1.51-2.71.49-.82,1.01-1.63,1.55-2.43,3.73-5.56,8.46-10.41,14.14-14.57,1-.73,2.03-1.45,3.09-2.14.68-.44,1.37-.88,2.08-1.3.68-.41,1.37-.81,2.07-1.21,1.09-.61,2.21-1.2,3.35-1.77,1.17-.58,2.35-1.16,3.57-1.7v-5.69c-1.54.59-3.04,1.21-4.5,1.85-1.89.83-3.71,1.71-5.46,2.64-.31.17-.61.34-.92.51-.4.22-.81.44-1.2.66-.72.41-1.43.83-2.12,1.26-1.33.82-2.6,1.67-3.83,2.55-5.31,3.8-9.74,8.17-13.26,13.08Z"/>
        <path class="cls-5" d="M262.37,83.41c-1.05-2.18-2.19-4.3-3.41-6.35-.68-1.14-1.38-2.27-2.11-3.38-.59-.9-1.2-1.79-1.83-2.67-.07-.1-.15-.2-.22-.3-4.8-6.65-10.65-12.68-17.51-18.05-.35-.27-.69-.54-1.04-.81-.69-.52-1.39-1.04-2.1-1.55-.68-.49-1.37-.98-2.07-1.46l-.02-.02c-.8-.55-1.62-1.1-2.45-1.63-.8-.52-1.62-1.03-2.45-1.54-2.92-1.79-5.97-3.48-9.17-5.08-1.67-.83-3.37-1.64-5.11-2.43-3.19-1.43-6.5-2.78-9.94-4.04v10.42c.44.19.87.38,1.31.57,1.64.73,3.25,1.48,4.82,2.26,6.69,3.29,12.8,6.99,18.33,11.1.64.48,1.28.96,1.9,1.45.3.24.6.47.9.71.42.33.83.67,1.25,1.01.65.54,1.29,1.07,1.92,1.62.04.04.09.07.13.11s.08.07.13.11c6.35,5.56,11.77,11.77,16.25,18.66.74,1.14,1.46,2.31,2.15,3.49,0,0,0,0,0,0,.42.71.83,1.44,1.23,2.16.16.3.33.6.49.9.04.08.08.15.12.23.16.29.31.59.47.89,1.05,2.03,2.02,4.12,2.92,6.26.99.16,1.95.44,2.86.8.69-2.41,1.46-4.76,2.31-7.06,0,0,0,0,0,0,.25-.67.5-1.34.77-2.01.06-.15.12-.29.17-.43.13-.32.25-.65.39-.97-.22-.5-.44-.99-.67-1.48-.23-.5-.47-1-.71-1.5Z"/>
        <path class="cls-5" d="M314.8,40.58c-3.19,1.6-6.25,3.29-9.17,5.08-.83.51-1.64,1.02-2.45,1.54-.83.54-1.64,1.08-2.45,1.63,0,0-.02.01-.03.02-.7.48-1.39.97-2.07,1.46-.71.51-1.41,1.03-2.1,1.55-.35.27-.7.54-1.04.81-6.86,5.37-12.7,11.39-17.5,18.04-.07.1-.15.2-.22.3-.63.88-1.23,1.77-1.83,2.67-.73,1.11-1.43,2.23-2.11,3.38-1.22,2.06-2.35,4.18-3.41,6.35-.24.5-.48,1-.71,1.5-.23.49-.45.98-.67,1.48-.14.32-.28.64-.42.97-.06.15-.13.29-.19.43-.25.6-.5,1.2-.73,1.81-.03.07-.05.14-.08.2-.43,1.11-.85,2.24-1.24,3.38-.62,1.78-1.19,3.6-1.71,5.46-.09.32-.18.64-.27.96.52.49,1.01,1.02,1.45,1.58.05.07.11.14.16.21.13.17.25.34.37.51.1-.15.21-.3.32-.45.09-.12.18-.23.27-.35.43-.53.89-1.03,1.39-1.5.37-.34.75-.67,1.15-.97.31-.23.64-.45.97-.66.7-.44,1.43-.81,2.2-1.12.91-.36,1.87-.64,2.86-.8.9-2.14,1.87-4.22,2.92-6.26.15-.3.31-.59.47-.88.04-.08.08-.15.12-.23.16-.3.32-.6.49-.9.4-.73.81-1.45,1.23-2.16.69-1.18,1.4-2.34,2.15-3.49,4.47-6.89,9.9-13.1,16.24-18.66.04-.04.08-.08.13-.11.04-.04.09-.07.13-.11.63-.55,1.27-1.09,1.92-1.62.41-.34.83-.68,1.25-1.01.3-.24.59-.48.89-.71.63-.49,1.26-.97,1.91-1.45,5.53-4.11,11.64-7.81,18.33-11.1,1.58-.78,3.18-1.53,4.82-2.26.43-.19.87-.38,1.31-.57v-10.42c-3.44,1.26-6.75,2.61-9.94,4.04-1.74.78-3.45,1.59-5.11,2.43Z"/>
        <path class="cls-4" d="M279.04,30.25c-1.66-1.41-3.41-2.73-5.23-3.97-2.34-1.59-4.8-3.05-7.4-4.36-2.6,1.31-5.07,2.77-7.4,4.36-1.82,1.24-3.57,2.56-5.23,3.97,4.93,3.64,9.15,7.77,12.64,12.39,3.49-4.62,7.71-8.75,12.64-12.39Z"/>
        <path class="cls-4" d="M246.23,37.97c-1-.73-2.03-1.45-3.09-2.14-.68-.44-1.37-.88-2.08-1.3-.68-.41-1.37-.81-2.07-1.21-1.09-.61-2.2-1.2-3.34-1.77-1.17-.58-2.35-1.16-3.57-1.7v13.11c.57.37,1.15.74,1.71,1.12.69.46,1.37.93,2.04,1.4.69.49,1.38.98,2.06,1.48.54.4,1.08.8,1.61,1.21,6.34,4.87,11.89,10.27,16.63,16.18,1.06-4.18,2.48-8.11,4.26-11.82-3.73-5.56-8.46-10.41-14.15-14.57Z"/>
        <path class="cls-4" d="M293.32,48.17c.53-.41,1.07-.81,1.61-1.21.68-.5,1.36-.99,2.06-1.48.67-.47,1.35-.94,2.04-1.4.56-.38,1.14-.75,1.71-1.12v-13.11c-1.22.54-2.41,1.12-3.57,1.7-1.14.57-2.26,1.16-3.35,1.77-.7.39-1.39.8-2.07,1.21-.7.43-1.4.86-2.08,1.3-1.06.69-2.09,1.41-3.09,2.14-5.69,4.17-10.41,9.02-14.14,14.57-.53.8-1.05,1.6-1.55,2.43-.53.89-1.03,1.79-1.51,2.71-1.12,2.13-2.1,4.34-2.97,6.65-1.26,3.37-2.25,6.94-2.95,10.7,1.04,1.79,2.03,3.61,2.95,5.48.93-1.87,1.91-3.7,2.95-5.49,1.09-1.87,2.25-3.69,3.47-5.47.32-.47.64-.93.97-1.39.32-.45.65-.9.99-1.35.62-.83,1.26-1.65,1.91-2.47,4.73-5.91,10.28-11.31,16.63-16.18Z"/>
        <path class="cls-4" d="M253.86,88.92c-.04-.08-.08-.15-.12-.23-.16-.3-.32-.6-.49-.9-.4-.73-.81-1.45-1.23-2.16,0,0,0,0,0,0-.69-1.18-1.4-2.34-2.15-3.49-4.48-6.89-9.9-13.1-16.25-18.66-.04-.04-.08-.08-.13-.11s-.09-.07-.13-.11c-.63-.55-1.27-1.09-1.92-1.62-.41-.34-.83-.68-1.25-1.01-.3-.24-.59-.48-.9-.71-.63-.49-1.26-.97-1.9-1.45-5.53-4.11-11.64-7.81-18.33-11.1-1.58-.78-3.18-1.53-4.82-2.26-.43-.19-.87-.38-1.31-.57v39.48c0,4.69.65,9.22,1.87,13.53,2.91-.56,5.9-.18,8.62,1.12,1.95.93,3.61,2.28,4.9,3.93,2.11-3.18,5.5-5.48,9.56-6.07l1.73-.25.56-.08c3.58-.52,7.15.35,10.09,2.45.07.05.14.1.21.15.67.5,1.29,1.06,1.86,1.66.6-.67,1.27-1.27,1.99-1.81,2.32-1.74,5.2-2.77,8.31-2.77h2.31c.78,0,1.54.07,2.28.19-.9-2.14-1.87-4.22-2.92-6.26-.15-.3-.31-.59-.47-.89Z"/>
        <path class="cls-4" d="M323.72,47.36c-6.69,3.29-12.8,6.99-18.33,11.1-.64.48-1.28.96-1.91,1.45-.3.23-.6.47-.89.71-.42.34-.84.67-1.25,1.01-.65.53-1.29,1.07-1.92,1.62-.04.04-.09.07-.13.11-.04.04-.08.08-.13.11-6.35,5.56-11.77,11.77-16.24,18.66-.74,1.14-1.46,2.31-2.15,3.49-.42.71-.83,1.44-1.23,2.16-.16.3-.33.6-.49.9-.04.08-.08.15-.12.23-.16.29-.31.59-.47.88-1.05,2.03-2.02,4.12-2.92,6.26.74-.12,1.5-.19,2.28-.19h2.31c3.11,0,5.99,1.03,8.31,2.77.72.54,1.39,1.15,1.99,1.81.56-.6,1.18-1.16,1.86-1.66.07-.05.14-.1.21-.15,2.93-2.1,6.51-2.98,10.09-2.45l.56.08,1.73.25c4.04.59,7.42,2.88,9.53,6.03.02,0,.05-.01.07-.02,1.29-1.62,2.94-2.95,4.86-3.87,2.72-1.3,5.71-1.69,8.62-1.12,1.22-4.3,1.87-8.84,1.87-13.53v-39.48c-.44.19-.87.38-1.31.57-1.64.73-3.24,1.48-4.82,2.26Z"/>
        <path class="cls-6" d="M263.95,187.62h0c-.55,0-1.09-.03-1.64-.07-.96-.07-1.9-.19-2.82-.36v13.79c1.62.13,3.25.21,4.89.24v-13.61h-.44Z"/>
        <path class="cls-6" d="M331.07,103.68c-.18-.08-.36-.16-.54-.22l-1.75-.61-.44-.15c-.65-.23-1.31-.37-1.97-.45-1.62-.19-3.26.07-4.77.77l1.65.58c.75.26,1.46.6,2.12,1,.73.44,1.4.96,2,1.53.65.62,1.22,1.32,1.7,2.06,1.85,2.87,2.4,6.52,1.18,9.99l-17.41,49.58c-1.22,3.46-3.18,6.44-5.65,8.83.33-.14.66-.29.99-.44,4.92-2.36,8.62-6.5,10.43-11.65l17.41-49.58c1.58-4.49-.64-9.4-4.96-11.24Z"/>
        <path class="cls-6" d="M202.26,118.18c-1.25-3.57-.63-7.33,1.34-10.23.5-.73,1.08-1.4,1.74-2.01h0c.61-.56,1.29-1.05,2.03-1.47.59-.34,1.23-.63,1.89-.87l1.82-.64c-1.16-.52-2.4-.78-3.64-.78-.34,0-.68.03-1.02.07-.66.08-1.32.22-1.97.45l-.44.15h0s-1.75.61-1.75.61c-.19.07-.36.15-.54.22-4.32,1.84-6.54,6.75-4.96,11.24l17.41,49.58c1.81,5.15,5.51,9.28,10.43,11.65.15.07.31.14.46.21-2.35-2.35-4.23-5.25-5.4-8.6l-17.41-49.58Z"/>
        <path class="cls-6" d="M309.05,130.27l.47-3.2.5-3.39.83-5.65.94-6.47c.16-1.11.1-2.2-.13-3.24-.29-1.29-.85-2.49-1.64-3.52-1.38-1.8-3.42-3.08-5.83-3.43l-2.29-.33c-1.57-.23-3.13-.04-4.57.53,4.64,1.05,8.06,4.84,8.78,9.38.17,1.11.19,2.26.02,3.42l-1.91,13.09-.44,3.03-.08.51-.35,2.4-1.5,10.24-1.85,12.64-1.47,10.09c-.61,4.19-2.33,7.95-4.8,11.02-.56.7-1.17,1.37-1.81,1.99-.04.04-.08.07-.12.11.07-.03.13-.06.2-.09,1.08-.46,2.12-1.02,3.12-1.67.36-.23.72-.48,1.06-.74,4.38-3.26,7.22-8.03,8.01-13.43l4.8-32.88.06-.4Z"/>
        <path class="cls-6" d="M239.26,177.32c-2.45-3.07-4.15-6.8-4.76-10.97l-1.31-8.99-1.85-12.64-1.64-11.23-.21-1.41-.22-1.49h0s-.44-3.01-.44-3.01l-1.93-13.23c-.11-.78-.15-1.55-.1-2.31.28-4.98,3.8-9.28,8.74-10.46-1.04-.42-2.17-.65-3.34-.65-.43,0-.87.03-1.31.1l-2.29.33c-2.48.36-4.57,1.71-5.94,3.58-.73,1-1.25,2.15-1.53,3.38-.23,1.04-.29,2.13-.13,3.24l.95,6.47.83,5.65.49,3.39h0s.47,3.2.47,3.2l.06.4,4.8,32.88c.88,6.04,4.33,11.07,9.08,14.16.99.64,2.03,1.21,3.12,1.67.18.08.37.15.55.22-.1-.1-.21-.2-.31-.3-.63-.63-1.23-1.29-1.79-1.99Z"/>
        <path class="cls-6" d="M249.06,146.23v-10.26h0v-23.77c0-1.98.51-3.85,1.39-5.48,1.48-2.72,4.04-4.76,7.1-5.58-.82-.25-1.69-.38-2.59-.38h-2.31c-2.2,0-4.21.79-5.77,2.11-.68.57-1.27,1.24-1.75,1.98-.86,1.31-1.38,2.86-1.45,4.52,0,.13-.02.26-.02.39v25.58h0v26.97c0,5.52,2.21,10.54,5.78,14.22.57.59,1.18,1.14,1.81,1.66.86.7,1.78,1.32,2.75,1.88.39.22.79.44,1.19.63.2.1.41.19.62.28-.18-.18-.35-.36-.52-.55-.53-.56-1.02-1.14-1.49-1.75-1.41-1.84-2.56-3.89-3.36-6.11-.89-2.44-1.37-5.08-1.37-7.82v-18.52Z"/>
        <path class="cls-6" d="M287.68,104.85c-.46-.7-1.02-1.34-1.65-1.89-1.58-1.36-3.63-2.2-5.87-2.2h-2.31c-.94,0-1.85.15-2.71.42,3.17.88,5.78,3.08,7.2,5.98.75,1.52,1.17,3.23,1.17,5.04v52.55s0,.01,0,.02c0,2.27-.34,4.45-.95,6.52-.61,2.05-1.5,3.98-2.63,5.75-.21.32-.42.64-.64.95-.08.11-.15.22-.23.32-.42.57-.86,1.12-1.33,1.64-.37.42-.76.82-1.16,1.21.51-.21,1.01-.45,1.49-.7.25-.13.5-.27.75-.41.46-.26.92-.54,1.36-.84.48-.32.94-.67,1.39-1.03.23-.19.45-.38.67-.57.24-.21.47-.43.7-.65,3.83-3.72,6.22-8.91,6.22-14.66v-52.55c0-.13-.01-.26-.02-.39-.07-1.66-.59-3.21-1.45-4.52Z"/>
        <path class="cls-3" d="M314.5,102.53s-.05.01-.07.02c0,.01.02.03.03.04.01-.02.03-.04.04-.06Z"/>
        <path class="cls-3" d="M327.38,106.13c-.6-.58-1.27-1.09-2-1.53-.66-.4-1.37-.73-2.12-1l-1.65-.58s-.09.03-.13.05c-2.17,1.04-3.8,2.86-4.59,5.13l-.19.55c.13,1.14.11,2.32-.06,3.51l-.94,6.43-.58,3.99-.53,3.64-5.54,37.94c-.78,5.33-3.18,10.03-6.62,13.68,1.63-.25,3.24-.7,4.79-1.35,2.47-2.39,4.43-5.37,5.65-8.83l17.41-49.58c1.22-3.47.66-7.12-1.18-9.99-.48-.75-1.05-1.44-1.7-2.06Z"/>
        <path class="cls-3" d="M218.23,126.32l-.53-3.64h0s-.58-3.99-.58-3.99l-.94-6.43c-.17-1.19-.19-2.37-.06-3.51l-.19-.55c-.8-2.27-2.43-4.09-4.59-5.13-.08-.04-.17-.07-.25-.11l-1.82.64c-.67.23-1.3.53-1.89.87-.74.42-1.42.92-2.03,1.47h0c-.66.6-1.24,1.28-1.74,2.01-1.98,2.9-2.6,6.67-1.34,10.23l17.41,49.58c1.18,3.35,3.05,6.25,5.4,8.6,1.72.77,3.5,1.31,5.32,1.58-3.44-3.65-5.84-8.35-6.62-13.68l-5.54-37.94Z"/>
        <path class="cls-3" d="M303.7,130.99l.08-.51.44-3.03,1.91-13.09c.17-1.17.16-2.32-.02-3.42-.71-4.54-4.13-8.33-8.78-9.38-.74.29-1.45.67-2.11,1.16-.82.61-1.51,1.35-2.07,2.18.57,1.51.88,3.15.88,4.86v52.55c0,1.71-.17,3.38-.5,5-.46,2.31-1.25,4.51-2.3,6.55-1.2,2.32-2.73,4.44-4.56,6.28-.28.28-.57.56-.86.82.77-.07,1.52-.17,2.27-.33,1.27-.26,2.51-.64,3.71-1.14.04-.04.08-.07.12-.11.64-.63,1.24-1.29,1.81-1.99,2.48-3.08,4.19-6.83,4.8-11.02l1.47-10.09,1.85-12.64,1.5-10.24.35-2.4Z"/>
        <path class="cls-3" d="M254.6,185.78s.03,0,.05,0c-.02,0-.03-.01-.05-.02h0Z"/>
        <path class="cls-3" d="M241.56,173.84c-1.05-2.04-1.83-4.24-2.3-6.55-.33-1.62-.5-3.29-.5-5v-28.06h0v-24.48c0-1.71.31-3.35.88-4.86-1.01-1.49-2.45-2.64-4.1-3.3-4.94,1.18-8.46,5.49-8.74,10.46-.04.76-.01,1.53.1,2.31l1.93,13.23.44,3.01h0s.22,1.49.22,1.49l.21,1.41,1.64,11.23,1.85,12.64,1.31,8.99c.61,4.17,2.31,7.9,4.76,10.97.56.7,1.16,1.37,1.79,1.99.1.1.21.2.31.3,1.08.43,2.21.77,3.37,1,.74.15,1.49.26,2.25.33-.29-.27-.57-.54-.85-.82-1.82-1.84-3.36-3.95-4.56-6.28Z"/>
        <path class="cls-3" d="M275.13,101.18c-.41.13-.8.29-1.18.48-.23.11-.45.23-.66.35-.53.31-1.03.68-1.48,1.1-.33.3-.65.63-.94.98-.4.49-.75,1.03-1.04,1.6-.63,1.22-.99,2.61-.99,4.07v23.89h0v4.89h0v44.19c.63,0,1.24-.04,1.85-.1,1.22-.12,2.4-.34,3.55-.67.53-.15,1.04-.31,1.55-.5.12-.04.23-.09.34-.14.14-.05.28-.11.42-.17.4-.39.79-.8,1.16-1.21.47-.53.91-1.07,1.33-1.64.08-.11.15-.21.23-.32.22-.31.43-.63.64-.95,1.13-1.77,2.02-3.7,2.63-5.75.61-2.07.95-4.25.95-6.52,0,0,0-.01,0-.02v-52.55c0-1.81-.42-3.52-1.17-5.04-1.42-2.9-4.04-5.1-7.2-5.98Z"/>
        <path class="cls-3" d="M270.37,187.56c-.5.03-1.01.05-1.52.06h0s-.13,0-.13,0h-4.32v13.61c.67.01,1.34.02,2.01.02,3.43,0,6.82-.2,10.15-.58v-14.3c-.75.25-1.52.46-2.3.63-1.26.28-2.56.47-3.88.56Z"/>
        <path class="cls-3" d="M261.83,103.96c-.26-.3-.54-.59-.83-.85-.45-.41-.95-.78-1.48-1.09-.22-.13-.44-.25-.66-.35-.42-.2-.85-.38-1.29-.51-3.06.81-5.61,2.86-7.1,5.58-.89,1.63-1.39,3.49-1.39,5.48v23.77h0v28.77c0,2.75.49,5.38,1.37,7.82.81,2.22,1.95,4.27,3.36,6.11.47.61.97,1.19,1.49,1.75.17.18.35.37.52.55.28.12.56.24.84.35.26.1.53.2.8.29.29.1.57.19.86.28.49.15.99.28,1.5.39.82.18,1.66.3,2.51.37.54.05,1.08.08,1.63.08v-44.19h0v-4.89h0v-23.89c0-1.47-.36-2.85-.99-4.07-.32-.62-.7-1.19-1.14-1.72Z"/>
        <path class="cls-7" d="M266.4,207.57c-.68,0-1.37,0-2.05-.02-1.62-.03-3.29-.11-4.96-.23-.83-.06-1.66-.13-2.49-.22-.83-.08-1.66-.18-2.48-.28-46.74-5.97-81.98-46.04-81.98-93.2,0-23.25,8.6-45.59,24.21-62.88v-21.56c0-1.55,1.25-2.8,2.79-2.8.31,0,.61.05.91.15l1.4.48c5.54,1.9,10.87,4.04,15.85,6.38,2.61-1.62,5.37-3.12,8.16-4.46l-.02-9.72c0-1.55,1.26-2.81,2.8-2.81.31,0,.61.05.91.15l1.4.48c4.54,1.55,8.86,3.38,12.87,5.42.59-.16,1.22-.31,1.85-.45,5.27-5.81,11.7-10.65,19.07-14.36l.48-.24c.39-.2.82-.3,1.26-.3s.87.1,1.26.3l.47.24c7.37,3.71,13.8,8.54,19.1,14.37.6.13,1.23.28,1.86.43,3.98-2.04,8.31-3.86,12.84-5.42l1.4-.48c.3-.1.6-.15.91-.15,1.54,0,2.8,1.26,2.8,2.81v9.75c2.78,1.32,5.54,2.82,8.18,4.43,4.94-2.34,10.28-4.48,15.81-6.38l1.4-.48c.29-.1.6-.15.91-.15,1.54,0,2.8,1.26,2.8,2.8v21.59c15.6,17.27,24.2,39.6,24.2,62.86,0,21.5-7.48,42.54-21.07,59.23-13.39,16.45-32.09,28-52.65,32.54-1.64.36-3.31.68-4.97.95-.83.14-1.65.26-2.49.37-.82.11-1.65.22-2.49.3-3.35.37-6.82.56-10.29.56ZM260.91,199.7c1.15.05,2.35.1,3.5.12.66.01,1.32.02,1.98.02,2.91,0,5.86-.15,8.77-.44l-.04-11.19c-.16.08-.37.13-.58.18-1.34.3-2.72.5-4.1.59-.06,0-.13,0-.19.01v.05h-7.73s0-.05,0-.05l-.31-.02c-.44-.03-.87-.07-1.31-.12v10.85ZM196.64,62.99c-10.78,14.81-16.47,32.31-16.47,50.62,0,20.69,7.47,40.71,21.04,56.38,13.43,15.5,31.9,25.75,52.02,28.85l-.04-11.86-.51.07c-1.28.19-2.59.28-3.88.28-4.27,0-8.53-1.05-12.33-3.04-1,.12-2.03.18-3.04.18-4.01,0-7.9-.89-11.56-2.65-6.44-3.09-11.29-8.5-13.65-15.24l-17.41-49.58c-2.56-7.3.73-15.38,7.67-18.79-1.23-4.61-1.84-9.39-1.84-14.21v-21.02ZM282.86,198.31c1.04-.24,2.11-.47,3.15-.71,18.63-4.35,35.53-15.01,47.61-30.03,12.26-15.24,19.01-34.4,19.01-53.95,0-18.35-5.71-35.88-16.52-50.7l.05,21.09c0,4.82-.62,9.61-1.84,14.23,6.93,3.39,10.22,11.47,7.66,18.77l-18.84,53.66c-.08.23-.19.45-.32.65-5.61,8.37-14.16,13.17-23.45,13.17-1.01,0-2.04-.06-3.06-.18-3.07,1.61-6.39,2.6-9.84,2.92-.83.08-1.66.12-2.47.12-.38,0-.76,0-1.14-.03v10.99ZM277.84,102.18c-.77,0-1.54.12-2.28.35-.3.1-.63.23-.99.4-.19.09-.37.19-.55.3-.45.26-.87.58-1.26.93-.31.28-.57.55-.79.82-.33.4-.62.86-.87,1.35-.55,1.08-.83,2.23-.83,3.43v71.52l.31-.06c1.1-.11,2.21-.32,3.29-.62.49-.14.97-.29,1.44-.46l.7-.28c.48-.2.94-.42,1.4-.65.23-.12.46-.25.69-.38.43-.25.86-.51,1.27-.79.43-.29.85-.6,1.29-.96.21-.17.42-.35.63-.53.22-.2.44-.4.66-.61,3.73-3.62,5.79-8.46,5.79-13.64v-52.55l-.02-.33c-.06-1.36-.48-2.68-1.22-3.8-.38-.59-.85-1.12-1.4-1.59-1.38-1.19-3.13-1.85-4.94-1.85h-2.31ZM252.65,102.18c-1.77,0-3.5.63-4.86,1.78-.57.48-1.07,1.04-1.48,1.67-.74,1.13-1.16,2.44-1.22,3.81l-.02.33v52.55c0,4.96,1.91,9.66,5.38,13.23.53.54,1.09,1.06,1.69,1.54.8.65,1.66,1.24,2.56,1.75.36.21.73.41,1.11.59.19.09.39.18.58.27.26.11.52.22.78.33.24.09.49.18.74.27.27.09.54.18.81.26.46.13.92.26,1.39.36.74.16,1.52.27,2.34.34h.11s-.02-1.79-.02-1.79v-69.7c0-1.2-.28-2.35-.83-3.43-.27-.53-.59-1.01-.96-1.45-.2-.24-.43-.47-.7-.72-.39-.35-.81-.66-1.25-.92-.18-.11-.37-.21-.56-.3-.38-.18-.74-.33-1.09-.43-.71-.21-1.44-.32-2.18-.32h-2.31ZM300.6,102.35c-.94,0-1.87.18-2.75.52-.65.25-1.25.58-1.78.98-.5.37-.95.81-1.35,1.31.49,1.45.73,3.01.73,4.6v52.55c0,1.77-.18,3.54-.53,5.28-.48,2.39-1.3,4.72-2.43,6.91-.77,1.49-1.67,2.9-2.69,4.21.49-.16.97-.34,1.45-.54l.18-.08c1-.43,1.98-.96,2.91-1.56.34-.22.67-.45.99-.69,4.07-3.03,6.72-7.47,7.45-12.5l7.59-52c.13-.9.09-1.81-.11-2.73-.24-1.08-.72-2.1-1.38-2.97-1.21-1.58-2.95-2.61-4.91-2.89l-2.29-.33c-.36-.05-.73-.08-1.09-.08ZM232.21,102.35c-.37,0-.73.03-1.1.08l-2.29.33c-2.02.29-3.79,1.37-5,3.02-.62.85-1.05,1.8-1.29,2.85-.2.91-.24,1.83-.11,2.73l7.59,52c.79,5.39,3.87,10.19,8.45,13.18.94.61,1.91,1.13,2.9,1.56.12.05.51.2.51.2.36.14.73.27,1.09.39-1.01-1.31-1.91-2.71-2.67-4.19-1.13-2.2-1.95-4.52-2.43-6.92-.35-1.74-.53-3.51-.53-5.28v-52.55c0-1.58.24-3.15.73-4.65-.81-.94-1.87-1.72-3.06-2.2-.91-.37-1.85-.55-2.81-.55ZM325.36,103.61c-1.09,0-2.15.24-3.16.7l-.12.05c-1.81.87-3.18,2.4-3.85,4.31l-.1.27c.11,1.16.07,2.35-.1,3.53l-7.59,52c-.58,4-2.03,7.73-4.29,11.07.14-.1.32-.17.5-.25.31-.13.62-.27.92-.41,4.58-2.2,8.03-6.05,9.71-10.84l17.41-49.58c1.32-3.75-.52-7.91-4.18-9.47l-.12-.05c-.11-.05-.22-.1-.34-.14l-2.18-.77c-.52-.18-1.07-.31-1.66-.38-.29-.03-.57-.05-.86-.05ZM207.44,103.6c-.29,0-.57.02-.86.06-.58.07-1.14.19-1.66.38l-2.18.77c-.11.04-.22.09-.33.14l-.12.05c-3.66,1.56-5.5,5.72-4.18,9.47l17.41,49.58c1.68,4.79,5.13,8.64,9.71,10.84.1.05.42.19.42.19.35.16.69.3,1.04.44-2.3-3.31-3.74-7.03-4.33-11.03l-7.59-52c-.17-1.18-.21-2.37-.1-3.55l-.09-.25c-.67-1.91-2.04-3.44-3.87-4.32l-.21-.09c-.98-.44-2.01-.66-3.06-.66ZM207.45,95.87c2.29,0,4.52.51,6.61,1.51,1.58.76,3,1.76,4.22,2.99,2.37-2.85,5.73-4.72,9.42-5.26l2.29-.33c.74-.11,1.49-.16,2.24-.16,3.19,0,6.27.99,8.88,2.87l.24.17c.35.26.69.54,1.03.84.33-.37.72-.69,1.11-.99,2.66-2,5.83-3.05,9.16-3.05h2.31c.83,0,1.67.07,2.51.21.58.1,1.16.23,1.73.39.53-1.91,1.18-3.85,1.88-5.74.25-.69.51-1.37.78-2.04l.34-.87c-.14-.28-.28-.59-.42-.9-.23-.5-.46-.99-.7-1.47-1.04-2.14-2.16-4.24-3.35-6.25-.66-1.12-1.36-2.23-2.08-3.32-.58-.88-1.18-1.76-1.79-2.62l-.21-.29c-4.7-6.51-10.5-12.48-17.23-17.76-.34-.27-.68-.53-1.03-.8-.68-.52-1.37-1.03-2.07-1.53-.67-.49-1.35-.97-2.04-1.44-.82-.56-1.62-1.1-2.44-1.63-.79-.52-1.6-1.02-2.42-1.52-2.87-1.76-5.92-3.44-9.06-5.02-1.66-.83-3.37-1.64-5.06-2.4-2.58-1.16-5.27-2.27-7.99-3.31l.05,8.4v39.48c0,4.05.5,8.07,1.5,11.96.52-.07,1.05-.1,1.58-.1ZM300.57,94.62c.74,0,1.5.06,2.24.16l2.29.33c3.69.54,7.05,2.42,9.45,5.24,1.23-1.23,2.63-2.22,4.2-2.97,2.09-1.01,4.32-1.52,6.62-1.52.52,0,1.05.03,1.58.08.99-3.87,1.5-7.89,1.5-11.94v-47.9c-2.66,1.05-5.34,2.17-7.94,3.33-1.69.76-3.39,1.57-5.06,2.4-3.14,1.57-6.19,3.26-9.06,5.02-.81.5-1.62,1.01-2.42,1.52-.82.53-1.62,1.07-2.41,1.61-.72.49-1.4.97-2.07,1.46-.7.5-1.39,1.02-2.07,1.53-.35.26-.69.53-1.03.8-6.73,5.28-12.53,11.25-17.23,17.76l-.21.29c-.61.86-1.21,1.74-1.79,2.62-.72,1.1-1.42,2.21-2.07,3.32-1.19,2-2.31,4.1-3.35,6.25-.24.49-.47.98-.7,1.48s-.44.97-.66,1.46c-.14.32-.59,1.38-.59,1.38-.25.59-.49,1.19-.72,1.78l-.08.2c-.42,1.07-.83,2.19-1.23,3.33-.6,1.73-1.17,3.54-1.69,5.38l-.05.19c.13.12.26.25.39.39.76-.82,1.51-1.51,2.29-2.09.34-.26.7-.5,1.07-.73.76-.48,1.58-.89,2.43-1.23,1.02-.41,2.08-.7,3.16-.88.84-.14,1.68-.21,2.51-.21h2.31c3.33,0,6.5,1.05,9.16,3.05.4.3.79.62,1.15.95.29-.25.64-.54,1-.8l.17-.12c2.68-1.92,5.75-2.91,8.94-2.91ZM299.32,26.24c-.85.35-1.69.71-2.51,1.07-1.87.83-3.68,1.7-5.37,2.6-.19.1-1.22.67-1.22.67-.29.16-.58.32-.86.48-.71.4-1.4.82-2.08,1.24-1.27.78-2.53,1.62-3.76,2.5-5.18,3.71-9.53,8-12.93,12.75l-.11.17c-.46.65-.94,1.36-1.44,2.15-.46.73-.92,1.5-1.4,2.35-1.08,1.91-2.05,3.93-2.89,6-1.4,3.45-2.5,7.17-3.27,11.06,1.12,1.63,2.2,3.34,3.19,5.05.6,1.03,1.19,2.09,1.76,3.15.51-1.06,1.1-2.12,1.7-3.15,1.1-1.88,2.28-3.75,3.53-5.56.33-.47.65-.95.99-1.42.33-.46.67-.92,1-1.37.63-.84,1.28-1.68,1.94-2.51,4.78-5.97,10.45-11.5,16.87-16.42.54-.41,1.08-.82,1.63-1.23.69-.51,1.38-1.01,2.09-1.5.68-.48,1.37-.95,2.07-1.42.36-.24.73-.48,1.09-.72v-15.93ZM233.48,42.2c.35.21.72.46,1.08.7.7.47,1.39.94,2.07,1.42.7.49,1.4.99,2.08,1.5.55.41,1.09.81,1.63,1.23,5.67,4.35,10.77,9.18,15.16,14.35.92-3.28,2.15-6.47,3.59-9.47.76-1.59,1.59-3.14,2.47-4.62l-.03-.68c-3.29-4.39-7.42-8.37-12.26-11.83-1.23-.88-2.49-1.72-3.75-2.5-.68-.42-1.38-.83-2.08-1.24-.28-.16-.56-.31-.84-.46,0,0-1.05-.58-1.25-.68-1.69-.9-3.5-1.77-5.37-2.6-.83-.37-1.66-.72-2.51-1.07v15.96ZM251.52,26.94c1.01.67,2.03,1.39,3.09,2.17,4.52,3.34,8.5,7.13,11.83,11.27,3.27-4.14,7.25-7.93,11.76-11.27,1.08-.79,2.09-1.51,3.09-2.17-1.33-1.45-2.73-2.81-4.17-4.07-3.21-2.82-6.82-5.32-10.71-7.43-3.9,2.11-7.5,4.62-10.71,7.43-1.44,1.26-2.84,2.63-4.17,4.07Z"/>
      </g>
    </g>
  </g>
</svg>