<?xml version="1.0" encoding="UTF-8"?>
<svg id="Layer_2" xmlns="http://www.w3.org/2000/svg" viewBox="0 0 586.4 620.58">
  <defs>
    <style>
      .cls-1 {
        fill: none;
      }

      .cls-2 {
        fill: #15ffd2;
      }

      .cls-3 {
        fill: #fa39ff;
      }

      .cls-4 {
        fill: #f680ff;
      }

      .cls-5 {
        fill: #d9fff8;
      }

      .cls-6 {
        fill: #0f0f0f;
      }
    </style>
  </defs>
  <g id="Layer_1-2" data-name="Layer_1">
    <g>
      <g>
        <g>
          <path class="cls-1" d="M266.03,467.97l-1.28.19c-2.52.37-5.03.55-7.51.55-8.81,0-17.23-2.26-24.64-6.29-2.26.3-4.52.46-6.78.46-7.65,0-15.26-1.72-22.36-5.13-12.46-5.98-21.85-16.46-26.43-29.5l-35.58-101.32c-5.06-14.42,2.26-30.24,16.37-35.79-2.8-9.75-4.3-20.05-4.3-30.69v-51.51c-24.67,30.7-39.45,69.65-39.45,112,0,90.59,67.61,165.69,155.01,177.5v-30.01c-1.03-.11-2.05-.27-3.06-.45Z"/>
          <path class="cls-1" d="M213.03,160.79c-2.99,1.5-5.93,3.08-8.82,4.74,3,1.59,5.94,3.21,8.82,4.88v-9.62Z"/>
          <path class="cls-1" d="M428.57,291.13c14.11,5.55,21.44,21.37,16.37,35.79l-35.58,101.32c-4.58,13.04-13.96,23.52-26.43,29.5-7.1,3.41-14.71,5.13-22.36,5.13-2.26,0-4.53-.16-6.78-.46-6.05,3.29-12.79,5.41-19.85,6.07v26.89c79.2-18.48,138.38-89.68,138.38-174.44,0-42.35-14.78-81.31-39.45-112.01v51.51c0,10.64-1.5,20.94-4.3,30.69Z"/>
          <path class="cls-1" d="M382.19,165.53c-2.89-1.66-5.84-3.24-8.82-4.74v9.62c2.88-1.67,5.82-3.29,8.82-4.88Z"/>
        </g>
        <path class="cls-4" d="M267.37,150.57c3.39-2.89,6.97-5.58,10.7-8.11,4.78-3.25,9.81-6.22,15.13-8.9,5.32,2.68,10.36,5.66,15.13,8.9,3.73,2.53,7.31,5.23,10.7,8.11,2.58-1.91,5.24-3.76,8.01-5.54.33-.21.68-.41,1.01-.62-3.44-3.94-7.11-7.65-11.05-11.1-7.13-6.25-15.07-11.69-23.81-16.3-8.73,4.6-16.68,10.05-23.81,16.3-3.94,3.45-7.61,7.16-11.05,11.1.34.21.68.41,1.02.62,2.77,1.78,5.43,3.63,8.01,5.54Z"/>
        <path class="cls-4" d="M237.17,156.83c1.44.81,2.85,1.63,4.24,2.47,1.44.87,2.86,1.76,4.25,2.66,2.17,1.41,4.27,2.88,6.32,4.38,11.63,8.51,21.28,18.42,28.91,29.78,1.92-3.98,4.02-7.84,6.35-11.56-.08-.11-.15-.22-.23-.33-7.19-10.05-16.25-18.97-27.1-26.74-2.52-1.8-5.13-3.54-7.83-5.22-1.42-.88-2.87-1.74-4.34-2.58-.81-.46-1.64-.91-2.46-1.36-.63-.34-1.25-.7-1.89-1.03-3.57-1.9-7.3-3.7-11.16-5.4-2.99-1.32-6.04-2.59-9.2-3.79v11.62c2.5,1.11,4.92,2.28,7.3,3.48,2.33,1.17,4.61,2.37,6.83,3.61Z"/>
        <path class="cls-4" d="M299.4,184.22c-.08.11-.15.22-.23.33-1.05,1.48-2.06,3-3.03,4.54-1.02,1.61-2,3.26-2.94,4.93-2.26,4.02-4.28,8.22-6.06,12.59-3.09,7.59-5.45,15.69-7.07,24.29,2.49,3.63,4.86,7.36,7.09,11.18,1.44-7.7,3.46-14.98,6.04-21.88,1.76-4.72,3.78-9.25,6.06-13.59.99-1.88,2.01-3.73,3.09-5.54,1.01-1.69,2.07-3.33,3.16-4.96,7.63-11.35,17.28-21.27,28.91-29.78,2.05-1.5,4.15-2.97,6.32-4.38,1.39-.91,2.81-1.79,4.25-2.66,1.39-.84,2.8-1.66,4.24-2.47,2.22-1.25,4.51-2.45,6.84-3.62,2.38-1.2,4.8-2.36,7.3-3.47v-11.63c-3.16,1.2-6.21,2.47-9.2,3.79-3.86,1.7-7.58,3.5-11.16,5.4-.64.34-1.26.69-1.88,1.03-.82.45-1.65.9-2.46,1.36-1.47.84-2.92,1.7-4.34,2.58-2.71,1.67-5.32,3.42-7.83,5.22-10.85,7.76-19.91,16.69-27.1,26.73Z"/>
        <path class="cls-4" d="M284.95,259.22c-2.15-4.45-4.47-8.78-6.96-12.98-1.39-2.34-2.82-4.64-4.31-6.9-1.21-1.84-2.45-3.66-3.73-5.46-.15-.2-.3-.4-.44-.61-9.82-13.6-21.77-25.91-35.78-36.88-.71-.55-1.42-1.11-2.13-1.65-1.41-1.07-2.84-2.13-4.28-3.17-1.39-1.01-2.8-2-4.23-2.98l-.05-.04c-1.64-1.13-3.31-2.24-5-3.34-1.64-1.06-3.31-2.11-5-3.15-5.96-3.65-12.21-7.11-18.74-10.38-3.41-1.7-6.89-3.36-10.45-4.96-6.52-2.93-13.29-5.68-20.31-8.26v21.29c.89.39,1.78.77,2.67,1.17,3.35,1.49,6.63,3.03,9.85,4.62,13.67,6.72,26.17,14.28,37.47,22.68,1.31.98,2.61,1.96,3.89,2.96.62.48,1.22.97,1.83,1.46.86.68,1.7,1.37,2.55,2.07,1.32,1.09,2.64,2.2,3.92,3.32.09.08.18.15.26.23s.17.15.26.23c12.97,11.36,24.05,24.06,33.2,38.13,1.52,2.34,2.98,4.72,4.39,7.13,0,0,0,0,0,0,.85,1.46,1.69,2.93,2.51,4.42.33.61.66,1.22.99,1.84.08.15.16.31.25.47.32.6.64,1.2.95,1.81,2.14,4.16,4.13,8.42,5.97,12.79,2.03.34,3.98.89,5.84,1.63,1.41-4.92,2.99-9.72,4.72-14.42,0,0,0,0,0,0,.51-1.38,1.03-2.75,1.56-4.11.12-.3.24-.59.35-.89.26-.66.52-1.32.79-1.98-.45-1.01-.9-2.02-1.36-3.02-.47-1.03-.95-2.04-1.44-3.06Z"/>
        <path class="cls-4" d="M392.11,171.67c-6.53,3.27-12.78,6.73-18.74,10.38-1.69,1.03-3.36,2.08-5,3.15-1.69,1.1-3.36,2.21-5,3.34-.02.01-.04.03-.06.04-1.43.98-2.84,1.98-4.23,2.98-1.45,1.05-2.88,2.1-4.28,3.17-.72.55-1.43,1.1-2.13,1.65-14.01,10.98-25.96,23.28-35.77,36.88-.15.2-.3.4-.45.61-1.28,1.79-2.52,3.61-3.73,5.45-1.49,2.26-2.93,4.56-4.31,6.9-2.49,4.21-4.81,8.53-6.96,12.98-.49,1.02-.97,2.04-1.45,3.07-.46,1-.92,2.01-1.36,3.02-.29.66-.57,1.32-.85,1.98-.13.3-.26.59-.38.89-.51,1.22-1.01,2.46-1.5,3.7-.05.14-.11.28-.16.42-.89,2.27-1.73,4.58-2.54,6.91-1.27,3.65-2.43,7.37-3.5,11.15-.19.66-.37,1.31-.55,1.97,1.07,1,2.06,2.07,2.96,3.22.11.14.22.28.33.42.26.34.51.69.75,1.04.21-.31.43-.61.65-.91.18-.24.37-.47.56-.71.87-1.09,1.82-2.11,2.83-3.06.75-.7,1.53-1.36,2.35-1.97.64-.48,1.3-.92,1.98-1.35,1.42-.89,2.93-1.65,4.5-2.28,1.86-.74,3.82-1.3,5.85-1.64,1.84-4.37,3.83-8.63,5.97-12.79.31-.61.63-1.21.95-1.81.08-.16.16-.31.25-.47.33-.61.66-1.23.99-1.84.82-1.49,1.65-2.96,2.51-4.42,1.41-2.41,2.87-4.79,4.39-7.13,9.14-14.07,20.23-26.77,33.2-38.13.09-.08.17-.15.26-.23.09-.08.18-.15.27-.23,1.29-1.12,2.6-2.22,3.92-3.31.84-.7,1.69-1.39,2.55-2.07.61-.49,1.21-.97,1.83-1.45,1.28-1,2.58-1.98,3.9-2.96,11.3-8.41,23.8-15.96,37.47-22.68,3.22-1.58,6.5-3.13,9.85-4.62.88-.39,1.78-.78,2.67-1.17v-21.3c-7.03,2.57-13.8,5.33-20.32,8.26-3.56,1.6-7.04,3.25-10.45,4.96Z"/>
        <path class="cls-3" d="M319.03,150.57c-3.39-2.89-6.97-5.58-10.7-8.11-4.78-3.25-9.81-6.22-15.13-8.9-5.32,2.68-10.36,5.66-15.13,8.9-3.73,2.53-7.3,5.23-10.7,8.11,10.08,7.45,18.69,15.89,25.83,25.32,7.14-9.43,15.75-17.88,25.83-25.32Z"/>
        <path class="cls-3" d="M251.97,166.34c-2.05-1.5-4.15-2.97-6.32-4.38-1.39-.91-2.81-1.79-4.25-2.66-1.39-.84-2.8-1.66-4.24-2.47-2.22-1.25-4.51-2.44-6.83-3.61-2.38-1.2-4.81-2.36-7.3-3.48v26.79c1.18.76,2.34,1.52,3.49,2.3,1.41.94,2.8,1.9,4.17,2.86,1.42,1,2.82,2.01,4.21,3.03,1.11.82,2.2,1.64,3.29,2.47,12.97,9.95,24.31,20.98,33.98,33.07,2.17-8.53,5.08-16.58,8.71-24.15-7.63-11.35-17.28-21.27-28.91-29.78Z"/>
        <path class="cls-3" d="M348.21,187.19c1.08-.83,2.18-1.66,3.29-2.47,1.38-1.02,2.79-2.03,4.21-3.03,1.37-.97,2.76-1.92,4.17-2.86,1.15-.77,2.32-1.54,3.5-2.3v-26.78c-2.5,1.11-4.92,2.28-7.3,3.47-2.33,1.17-4.62,2.37-6.84,3.62-1.44.81-2.85,1.63-4.24,2.47-1.44.87-2.86,1.76-4.25,2.66-2.17,1.41-4.27,2.88-6.32,4.38-11.63,8.51-21.28,18.42-28.91,29.78-1.09,1.63-2.15,3.27-3.16,4.96-1.08,1.81-2.11,3.66-3.09,5.54-2.28,4.34-4.3,8.88-6.06,13.59-2.57,6.89-4.59,14.18-6.04,21.88,2.13,3.65,4.14,7.39,6.03,11.2,1.89-3.82,3.9-7.56,6.04-11.21,2.23-3.82,4.6-7.54,7.09-11.18.66-.95,1.31-1.91,1.99-2.85.66-.92,1.34-1.84,2.02-2.75,1.27-1.7,2.57-3.38,3.9-5.04,9.67-12.09,21.01-23.12,33.98-33.07Z"/>
        <path class="cls-3" d="M267.56,270.46c-.08-.16-.16-.31-.25-.47-.33-.61-.66-1.23-.99-1.84-.82-1.49-1.65-2.96-2.51-4.42,0,0,0,0,0,0-1.41-2.41-2.87-4.79-4.39-7.13-9.15-14.08-20.23-26.77-33.2-38.13-.09-.08-.17-.15-.26-.23s-.18-.15-.26-.23c-1.29-1.12-2.6-2.22-3.92-3.32-.84-.69-1.69-1.38-2.55-2.07-.61-.49-1.22-.97-1.83-1.46-1.28-1-2.58-1.98-3.89-2.96-11.3-8.4-23.8-15.96-37.47-22.68-3.22-1.58-6.5-3.13-9.85-4.62-.88-.39-1.78-.78-2.67-1.17v80.68c0,9.58,1.34,18.85,3.83,27.64,5.94-1.15,12.06-.37,17.61,2.3,3.98,1.91,7.38,4.66,10.02,8.03,4.31-6.49,11.24-11.2,19.54-12.41l3.53-.52,1.15-.17c7.32-1.07,14.62.72,20.62,5.01.15.1.29.2.44.31,1.38,1.03,2.64,2.17,3.79,3.4,1.23-1.36,2.59-2.6,4.06-3.71,4.74-3.55,10.62-5.66,16.98-5.66h4.73c1.59,0,3.14.14,4.66.39-1.84-4.37-3.83-8.63-5.97-12.79-.31-.61-.64-1.21-.95-1.81Z"/>
        <path class="cls-3" d="M410.35,185.54c-13.67,6.72-26.17,14.28-37.47,22.68-1.31.98-2.61,1.96-3.9,2.96-.61.48-1.22.97-1.83,1.45-.86.69-1.71,1.38-2.55,2.07-1.32,1.09-2.63,2.19-3.92,3.31-.09.08-.18.15-.27.23-.09.08-.17.15-.26.23-12.97,11.36-24.05,24.05-33.2,38.13-1.52,2.34-2.98,4.72-4.39,7.13-.85,1.46-1.69,2.94-2.51,4.42-.33.61-.66,1.22-.99,1.84-.08.16-.16.31-.25.47-.32.6-.64,1.2-.95,1.81-2.14,4.16-4.13,8.42-5.97,12.79,1.52-.25,3.07-.39,4.66-.39h4.73c6.36,0,12.24,2.11,16.98,5.66,1.47,1.1,2.83,2.34,4.06,3.71,1.15-1.23,2.41-2.37,3.79-3.4.14-.11.29-.21.44-.31,6-4.3,13.29-6.09,20.62-5.01l1.14.17,3.53.52c8.26,1.21,15.17,5.88,19.48,12.33.05-.01.1-.02.14-.03,2.63-3.32,6-6.02,9.93-7.91,5.55-2.67,11.68-3.44,17.61-2.3,2.49-8.79,3.83-18.06,3.83-27.64v-80.68c-.89.39-1.79.77-2.67,1.17-3.35,1.49-6.63,3.03-9.85,4.62Z"/>
        <path class="cls-5" d="M288.2,472.18h0c-1.12-.01-2.24-.06-3.34-.14-1.95-.14-3.88-.38-5.77-.73v28.19c3.31.26,6.64.43,10,.5v-27.82h-.89Z"/>
        <path class="cls-5" d="M425.36,300.64c-.37-.16-.73-.32-1.11-.45l-3.57-1.25-.89-.31c-1.32-.46-2.67-.75-4.02-.91-3.31-.38-6.66.14-9.76,1.57l3.38,1.19c1.54.54,2.98,1.23,4.33,2.04,1.49.9,2.86,1.96,4.09,3.13,1.33,1.27,2.49,2.69,3.48,4.22,3.77,5.86,4.9,13.33,2.41,20.41l-35.58,101.32c-2.48,7.07-6.5,13.16-11.54,18.05.68-.28,1.35-.58,2.02-.9,10.05-4.83,17.62-13.28,21.32-23.8l35.58-101.32c3.22-9.18-1.31-19.22-10.14-22.97Z"/>
        <path class="cls-5" d="M162.11,330.27c-2.56-7.29-1.29-14.99,2.75-20.91,1.01-1.49,2.2-2.87,3.55-4.1h0c1.25-1.14,2.64-2.15,4.14-3.01,1.21-.69,2.5-1.29,3.87-1.77l3.71-1.3c-2.37-1.05-4.9-1.59-7.43-1.59-.69,0-1.39.05-2.08.13-1.35.16-2.7.45-4.02.91l-.89.31h0s-3.57,1.25-3.57,1.25c-.38.13-.74.3-1.11.45-8.83,3.76-13.37,13.79-10.14,22.97l35.58,101.32c3.69,10.52,11.27,18.97,21.32,23.8.31.15.62.28.94.42-4.81-4.8-8.64-10.73-11.04-17.57l-35.58-101.32Z"/>
        <path class="cls-5" d="M380.37,354.97l.95-6.54,1.01-6.93,1.69-11.55,1.93-13.23c.33-2.27.21-4.5-.26-6.62-.59-2.64-1.74-5.09-3.35-7.2-2.81-3.67-6.99-6.3-11.91-7.01l-4.68-.68c-3.2-.47-6.4-.08-9.33,1.07,9.49,2.14,16.48,9.89,17.93,19.17.35,2.26.38,4.61.03,7l-3.91,26.75-.9,6.18-.15,1.05-.72,4.9-3.06,20.93-3.77,25.83-3.01,20.61c-1.25,8.56-4.76,16.24-9.82,22.52-1.15,1.43-2.38,2.79-3.69,4.07-.08.08-.16.15-.24.23.13-.06.27-.12.4-.17,2.2-.95,4.33-2.09,6.38-3.42.74-.48,1.46-.98,2.17-1.51,8.94-6.66,14.75-16.41,16.37-27.44l9.81-67.2.12-.81Z"/>
        <path class="cls-5" d="M237.72,451.12c-5.01-6.27-8.49-13.9-9.73-22.41l-2.68-18.37-3.77-25.83-3.35-22.95-.42-2.89-.45-3.05h0s-.9-6.15-.9-6.15l-3.95-27.04c-.23-1.59-.3-3.17-.21-4.72.57-10.17,7.78-18.96,17.87-21.38-2.13-.86-4.43-1.34-6.82-1.34-.88,0-1.77.06-2.67.19l-4.68.68c-5.06.74-9.33,3.49-12.14,7.32-1.5,2.04-2.56,4.39-3.12,6.9-.47,2.12-.59,4.35-.26,6.62l1.93,13.23,1.69,11.55,1.01,6.93h0s.95,6.54.95,6.54l.12.81,9.81,67.2c1.8,12.33,8.86,22.62,18.56,28.94,2.02,1.32,4.15,2.47,6.37,3.42.37.16.75.3,1.12.45-.21-.2-.43-.4-.64-.61-1.3-1.28-2.52-2.64-3.66-4.07Z"/>
        <path class="cls-5" d="M257.76,387.59v-20.96h0v-48.58c0-4.05,1.03-7.87,2.85-11.19,3.03-5.55,8.26-9.74,14.51-11.4-1.68-.51-3.45-.79-5.3-.79h-4.73c-4.49,0-8.6,1.62-11.8,4.31-1.38,1.16-2.59,2.52-3.58,4.04-1.75,2.68-2.81,5.84-2.96,9.24-.01.26-.04.52-.04.79v52.27h0v55.12c0,11.29,4.51,21.54,11.81,29.06,1.17,1.2,2.4,2.33,3.71,3.39,1.76,1.42,3.64,2.71,5.61,3.84.8.46,1.61.89,2.44,1.3.42.2.84.39,1.27.58-.37-.36-.72-.74-1.07-1.11-1.07-1.14-2.09-2.33-3.05-3.57-2.89-3.75-5.23-7.95-6.88-12.49-1.82-4.99-2.81-10.37-2.81-15.99v-37.84Z"/>
        <path class="cls-5" d="M336.68,303.02c-.94-1.44-2.08-2.74-3.38-3.86-3.22-2.79-7.41-4.49-12-4.49h-4.73c-1.93,0-3.78.3-5.53.85,6.47,1.79,11.81,6.3,14.72,12.22,1.53,3.11,2.39,6.6,2.39,10.3v107.39s0,.02,0,.03c0,4.63-.69,9.1-1.95,13.32-1.25,4.19-3.07,8.14-5.37,11.74-.42.66-.86,1.31-1.31,1.94-.16.22-.31.44-.47.66-.86,1.16-1.77,2.28-2.73,3.36-.76.86-1.56,1.68-2.38,2.48,1.04-.43,2.06-.91,3.05-1.43.52-.27,1.03-.54,1.53-.83.95-.54,1.88-1.11,2.78-1.72.98-.66,1.92-1.37,2.83-2.11.47-.38.93-.77,1.38-1.17.49-.43.97-.87,1.43-1.33,7.83-7.59,12.71-18.21,12.71-29.95v-107.39c0-.27-.03-.52-.04-.79-.15-3.4-1.2-6.56-2.96-9.24Z"/>
        <path class="cls-2" d="M391.5,298.29s-.1.02-.14.03c.02.03.03.06.05.08.03-.04.06-.08.09-.12Z"/>
        <path class="cls-2" d="M417.82,305.64c-1.23-1.18-2.59-2.23-4.09-3.13-1.34-.81-2.79-1.5-4.33-2.04l-3.38-1.19c-.09.04-.18.07-.26.11-4.42,2.12-7.76,5.84-9.38,10.48l-.39,1.12c.26,2.34.22,4.75-.13,7.18l-1.92,13.14-1.19,8.15-1.09,7.44-11.32,77.54c-1.59,10.89-6.5,20.5-13.53,27.96,3.33-.51,6.61-1.43,9.79-2.75,5.04-4.89,9.06-10.98,11.54-18.05l35.58-101.32c2.49-7.08,1.36-14.55-2.41-20.41-.98-1.53-2.15-2.95-3.48-4.22Z"/>
        <path class="cls-2" d="M194.75,346.9l-1.09-7.45h0s-1.19-8.15-1.19-8.15l-1.92-13.14c-.36-2.43-.39-4.84-.13-7.18l-.39-1.12c-1.63-4.63-4.96-8.35-9.38-10.48-.17-.08-.34-.15-.51-.23l-3.71,1.3c-1.37.48-2.66,1.08-3.87,1.77-1.51.86-2.9,1.87-4.14,3.01h0c-1.35,1.23-2.53,2.61-3.55,4.1-4.04,5.93-5.3,13.63-2.75,20.91l35.58,101.32c2.4,6.84,6.23,12.77,11.04,17.57,3.51,1.58,7.16,2.67,10.87,3.24-7.04-7.46-11.94-17.06-13.53-27.96l-11.32-77.53Z"/>
        <path class="cls-2" d="M369.42,356.44l.15-1.05.9-6.18,3.91-26.75c.35-2.38.32-4.73-.03-7-1.45-9.28-8.45-17.03-17.93-19.17-1.51.59-2.96,1.38-4.3,2.37-1.68,1.25-3.1,2.77-4.24,4.46,1.16,3.09,1.8,6.44,1.8,9.93v107.39c0,3.5-.35,6.91-1.02,10.22-.95,4.72-2.55,9.21-4.7,13.38-2.44,4.75-5.59,9.07-9.31,12.83-.57.58-1.16,1.14-1.75,1.69,1.56-.14,3.12-.36,4.65-.67,2.59-.53,5.13-1.31,7.58-2.34.08-.08.16-.15.24-.23,1.31-1.28,2.54-2.64,3.69-4.07,5.06-6.29,8.57-13.96,9.82-22.52l3.01-20.61,3.77-25.83,3.06-20.93.72-4.9Z"/>
        <path class="cls-2" d="M269.09,468.43s.07,0,.1.01c-.03-.01-.07-.03-.1-.04v.03Z"/>
        <path class="cls-2" d="M242.44,444.03c-2.14-4.17-3.75-8.66-4.7-13.38-.66-3.3-1.02-6.72-1.02-10.22v-57.35h0v-50.04c0-3.5.64-6.85,1.8-9.94-2.06-3.04-5-5.39-8.39-6.75-10.09,2.42-17.3,11.21-17.87,21.38-.09,1.55-.02,3.13.21,4.72l3.95,27.04.9,6.15h0s.45,3.05.45,3.05l.42,2.89,3.35,22.95,3.77,25.83,2.68,18.37c1.24,8.51,4.72,16.15,9.73,22.41,1.14,1.43,2.36,2.79,3.66,4.07.21.21.43.4.64.61,2.22.87,4.52,1.57,6.88,2.05,1.51.31,3.04.53,4.59.67-.59-.54-1.17-1.1-1.74-1.67-3.73-3.76-6.87-8.08-9.31-12.83Z"/>
        <path class="cls-2" d="M311.04,295.52c-.84.26-1.64.6-2.41.98-.46.22-.91.46-1.35.72-1.09.64-2.1,1.39-3.03,2.24-.68.62-1.33,1.28-1.91,1.99-.82,1-1.52,2.1-2.12,3.27-1.28,2.5-2.01,5.32-2.01,8.32v48.83h0v10h0v90.31c1.28,0,2.54-.08,3.79-.2,2.49-.24,4.91-.7,7.25-1.36,1.07-.3,2.13-.64,3.17-1.02.24-.09.47-.19.7-.28.28-.11.57-.22.85-.34.82-.8,1.62-1.62,2.38-2.48.96-1.08,1.87-2.2,2.73-3.36.16-.22.31-.44.47-.66.45-.64.89-1.28,1.31-1.94,2.3-3.61,4.12-7.55,5.37-11.74,1.26-4.22,1.94-8.69,1.95-13.32,0-.01,0-.02,0-.03v-107.39c0-3.7-.86-7.19-2.39-10.3-2.91-5.92-8.25-10.42-14.72-12.22Z"/>
        <path class="cls-2" d="M301.3,472.06c-1.03.07-2.06.11-3.1.12h0s-.27,0-.27,0h-8.84v27.82c1.37.03,2.74.05,4.11.05,7.01,0,13.94-.41,20.74-1.19v-29.23c-1.54.5-3.1.93-4.7,1.29-2.58.58-5.23.96-7.93,1.14Z"/>
        <path class="cls-2" d="M283.86,301.21c-.53-.62-1.1-1.2-1.7-1.75-.93-.84-1.94-1.59-3.03-2.24-.44-.26-.89-.5-1.36-.72-.85-.41-1.73-.77-2.65-1.04-6.25,1.66-11.47,5.84-14.51,11.4-1.82,3.32-2.85,7.14-2.85,11.19v48.58h0v58.8c0,5.62.99,11,2.81,15.99,1.65,4.53,3.99,8.73,6.88,12.49.96,1.24,1.97,2.43,3.05,3.57.35.38.71.75,1.07,1.11.57.25,1.14.49,1.72.72.54.21,1.08.41,1.63.6.58.2,1.17.39,1.76.56,1.01.3,2.03.57,3.06.79,1.68.36,3.39.6,5.13.75,1.1.09,2.2.16,3.32.17v-90.3h0v-10h0v-48.83c0-3-.74-5.82-2.02-8.33-.64-1.26-1.42-2.44-2.33-3.51Z"/>
        <path class="cls-6" d="M274.09,509.1c1.66.17,3.33.32,5,.44,3.31.24,6.64.4,10,.47,1.36.04,2.74.05,4.11.05,7.01,0,13.93-.38,20.74-1.14,1.67-.17,3.34-.38,5-.61,1.68-.22,3.34-.48,5-.75,3.37-.55,6.7-1.19,10-1.92,84.76-18.68,148.38-94.4,148.38-184.7,0-48.63-18.45-93.03-48.72-126.57-.47-.52-.73-1.19-.73-1.89v-44.12c0-1.94-1.91-3.31-3.75-2.68l-2.87.98c-11.3,3.87-22.01,8.18-32.11,12.92-.86.4-1.85.34-2.66-.15-5.33-3.26-10.84-6.26-16.5-8.99-.98-.47-1.61-1.46-1.61-2.54v-19.94c0-1.94-1.91-3.31-3.75-2.68l-2.87.98c-9.29,3.18-17.92,6.83-25.92,10.92-.6.31-1.29.39-1.95.22-1.26-.31-2.53-.61-3.8-.9-.56-.13-1.06-.42-1.45-.85-10.62-11.68-23.35-21.27-38.19-28.73l-.97-.49c-.8-.4-1.75-.4-2.55,0l-.97.49c-14.84,7.47-27.57,17.06-38.19,28.74-.39.42-.89.72-1.45.85-1.27.29-2.53.58-3.79.9-.66.16-1.35.09-1.95-.22-8-4.08-16.62-7.73-25.92-10.92l-2.87-.98c-1.84-.63-3.75.74-3.75,2.68v19.93c0,1.09-.63,2.07-1.61,2.54-5.66,2.73-11.17,5.73-16.51,8.99-.81.49-1.8.55-2.66.15-10.1-4.74-20.81-9.05-32.11-12.92l-2.87-.98c-1.84-.63-3.75.74-3.75,2.68v44.12c0,.7-.26,1.37-.73,1.89-30.27,33.54-48.72,77.94-48.72,126.57,0,96.11,72.07,175.71,165.01,187.59,1.66.21,3.33.4,5,.57ZM163.53,183.4v-20.85c0-1.98,1.98-3.36,3.83-2.66,5.67,2.16,11.16,4.43,16.49,6.83,3.56,1.6,7.04,3.25,10.45,4.96,6.53,3.27,12.78,6.73,18.74,10.38,1.69,1.03,3.36,2.08,5,3.15,1.69,1.1,3.36,2.21,5,3.34l.05.04c1.43.98,2.84,1.98,4.23,2.98,1.45,1.05,2.88,2.1,4.28,3.17.72.55,1.43,1.1,2.13,1.65,14.01,10.98,25.96,23.28,35.78,36.88.15.2.3.4.44.61,1.28,1.79,2.52,3.61,3.73,5.46,1.49,2.26,2.93,4.56,4.31,6.9,2.49,4.21,4.81,8.54,6.96,12.98.49,1.01.97,2.03,1.44,3.06.29.64.59,1.28.88,1.93.31.7.33,1.49.04,2.2-.12.29-.23.58-.35.87-.12.3-.24.59-.35.89-.54,1.36-1.06,2.73-1.56,4.11,0,0,0,0,0,0-1.4,3.8-2.7,7.66-3.89,11.59-.45,1.48-1.99,2.35-3.47,1.92-1.04-.3-2.11-.55-3.2-.73-1.52-.25-3.07-.39-4.66-.39h-4.73c-6.36,0-12.24,2.11-16.98,5.66-.74.56-1.45,1.15-2.14,1.77-1.08.98-2.72,1.07-3.8.1-.61-.55-1.25-1.07-1.92-1.56-.14-.11-.29-.21-.44-.31-6-4.3-13.3-6.08-20.62-5.01l-1.15.17-3.53.52c-7.12,1.04-13.24,4.66-17.55,9.77-1.08,1.27-3,1.35-4.17.17-2.24-2.25-4.88-4.13-7.83-5.55-4.8-2.3-10.02-3.2-15.18-2.66-1.43.15-2.74-.74-3.1-2.13-2.06-8.05-3.16-16.47-3.16-25.15v-77.03ZM223.03,145.32v-3.04c0-2.02,2.05-3.39,3.92-2.62s3.54,1.48,5.28,2.24c3.86,1.7,7.58,3.5,11.16,5.4.64.34,1.26.69,1.89,1.03.82.45,1.65.9,2.46,1.36,1.47.84,2.92,1.7,4.34,2.58,2.71,1.67,5.32,3.42,7.83,5.22,10.42,7.45,19.18,15.97,26.22,25.53l.12,3.14c-1.94,3.22-3.72,6.54-5.36,9.95-2.89,6.01-5.31,12.31-7.28,18.93-.64,2.17-3.41,2.77-4.88,1.04-8.89-10.47-19.08-20.1-30.54-28.9-1.08-.83-2.18-1.66-3.29-2.47-1.38-1.02-2.79-2.03-4.21-3.03-1.37-.97-2.76-1.92-4.17-2.86-.73-.49-1.46-.98-2.2-1.46-.8-.52-1.29-1.42-1.29-2.37v-18.85s0-6.4,0-6.4v-4.42ZM269.39,133.31c6.76-5.93,14.25-11.12,22.45-15.57.84-.46,1.87-.46,2.71,0,8.2,4.45,15.69,9.65,22.45,15.57,3.94,3.45,7.61,7.16,11.05,11.1-.33.21-.68.41-1.01.62-2.77,1.78-5.43,3.63-8.01,5.54-9.07,6.7-16.95,14.21-23.64,22.52-1.12,1.4-3.26,1.4-4.38,0-6.69-8.31-14.57-15.82-23.64-22.52-2.58-1.91-5.24-3.76-8.01-5.54-.33-.21-.68-.41-1.02-.62,3.44-3.94,7.11-7.65,11.05-11.1ZM359.45,139.66c1.87-.76,3.92.61,3.92,2.62v3.04s0,4.42,0,4.42v25.25c0,.96-.49,1.85-1.29,2.37-.74.48-1.48.97-2.21,1.46-1.41.94-2.8,1.9-4.17,2.86-1.42,1-2.82,2.01-4.21,3.03-1.11.82-2.2,1.64-3.29,2.47-12.97,9.95-24.31,20.98-33.98,33.07-1.33,1.66-2.63,3.34-3.9,5.04-.68.91-1.36,1.83-2.02,2.75-.67.94-1.33,1.89-1.99,2.85-2.49,3.63-4.86,7.36-7.09,11.18-1.22,2.09-2.4,4.2-3.54,6.34-1.07,2.01-3.93,2.01-5,0-1.14-2.14-2.32-4.25-3.53-6.33-2.03-3.48-4.18-6.88-6.43-10.21-.42-.63-.59-1.4-.44-2.14,1.61-8.17,3.9-15.88,6.84-23.13,1.78-4.37,3.8-8.56,6.06-12.59.94-1.67,1.91-3.32,2.94-4.93.98-1.54,1.98-3.06,3.03-4.54.08-.11.15-.22.23-.33,7.19-10.05,16.25-18.97,27.1-26.73,2.52-1.8,5.13-3.54,7.83-5.22,1.42-.88,2.87-1.74,4.34-2.58.81-.46,1.64-.91,2.46-1.36.63-.34,1.25-.69,1.88-1.03,3.57-1.9,7.3-3.7,11.16-5.4,1.73-.77,3.49-1.51,5.28-2.24ZM419.04,159.89c1.85-.7,3.83.68,3.83,2.66v17.21s0,3.65,0,3.65v77.03c0,8.68-1.1,17.11-3.16,25.15-.36,1.39-1.67,2.28-3.1,2.13-5.16-.54-10.39.35-15.19,2.66-3.93,1.89-7.3,4.59-9.93,7.91-.03.04-.06.08-.09.12-.02-.03-.03-.06-.05-.08-4.31-6.45-11.22-11.12-19.48-12.33l-3.53-.52-1.14-.17c-7.32-1.07-14.62.71-20.62,5.01-.15.1-.29.2-.44.31-.67.5-1.3,1.02-1.92,1.56-1.09.97-2.73.88-3.8-.1-.68-.62-1.4-1.21-2.14-1.77-4.74-3.55-10.62-5.66-16.98-5.66h-4.73c-1.59,0-3.14.14-4.66.39-2.03.34-3.99.89-5.85,1.64-1.57.63-3.08,1.39-4.5,2.28-.68.42-1.34.87-1.98,1.35-1.66,1.24-3.16,2.68-4.55,4.21-.07.07-.13.15-.19.24-.32.44-.68.86-1.01,1.29-.22.3-.44.61-.65.91-.24-.35-.49-.7-.75-1.04-.11-.14-.22-.28-.33-.42-.59-.75-1.21-1.47-1.87-2.15s-.91-1.73-.65-2.68c.03-.12.07-.25.1-.37,1.07-3.78,2.23-7.5,3.5-11.15.81-2.33,1.65-4.63,2.54-6.91.05-.14.11-.28.16-.42.49-1.24.99-2.47,1.5-3.7.12-.3.26-.59.38-.89.28-.66.56-1.32.85-1.98.44-1.01.9-2.02,1.36-3.02.47-1.03.96-2.05,1.45-3.07,2.15-4.45,4.47-8.78,6.96-12.98,1.38-2.34,2.82-4.64,4.31-6.9,1.21-1.84,2.45-3.66,3.73-5.45.15-.2.3-.41.45-.61,9.82-13.6,21.76-25.9,35.77-36.88.71-.55,1.42-1.11,2.13-1.65,1.41-1.07,2.84-2.13,4.28-3.17,1.39-1.01,2.8-2,4.23-2.98.02-.01.04-.03.06-.04,1.64-1.13,3.31-2.24,5-3.34,1.64-1.06,3.31-2.11,5-3.15,5.96-3.65,12.21-7.11,18.74-10.38,3.41-1.7,6.89-3.36,10.45-4.96,5.33-2.39,10.82-4.67,16.49-6.83ZM208.73,449.16c-.31-.14-.63-.27-.94-.42-10.05-4.83-17.62-13.28-21.32-23.8l-35.58-101.32c-3.22-9.18,1.31-19.22,10.14-22.97.37-.16.73-.32,1.11-.45l3.57-1.25h0s.89-.31.89-.31c1.32-.46,2.67-.76,4.02-.91.69-.08,1.39-.13,2.08-.13,2.53,0,5.06.54,7.43,1.59.17.08.34.15.51.23,4.42,2.12,7.76,5.84,9.38,10.48l.19.55c.13.38.18.78.14,1.17-.19,2.15-.13,4.35.19,6.58l1.92,13.14,1.19,8.14h0s1.09,7.45,1.09,7.45l11.32,77.53c1.16,7.93,4.07,15.17,8.28,21.4,1.56,2.31-.74,5.27-3.34,4.27-.77-.29-1.52-.61-2.28-.95ZM375.4,450.11c-2.62,1-4.94-1.94-3.36-4.26,4.22-6.23,7.13-13.48,8.29-21.42l11.32-77.54,1.09-7.44,1.19-8.15,1.92-13.14c.33-2.23.38-4.43.19-6.58-.03-.4,0-.8.14-1.17l.19-.55c1.63-4.63,4.96-8.35,9.38-10.48.09-.04.18-.07.26-.11,3.09-1.43,6.45-1.95,9.76-1.57,1.36.16,2.7.45,4.02.91l.89.31,3.57,1.25c.38.13.74.3,1.11.45,8.83,3.76,13.37,13.79,10.14,22.97l-35.58,101.32c-3.69,10.52-11.27,18.97-21.32,23.8-.67.32-1.34.62-2.02.9-.39.16-.78.32-1.18.47ZM298.2,313.04c0-3,.74-5.82,2.01-8.32.59-1.16,1.3-2.26,2.12-3.27.58-.72,1.23-1.37,1.91-1.99.93-.85,1.94-1.6,3.03-2.24.44-.26.89-.5,1.35-.72.78-.38,1.58-.71,2.41-.98,1.75-.55,3.6-.85,5.53-.85h4.73c4.59,0,8.77,1.7,12,4.49,1.3,1.12,2.44,2.42,3.38,3.86,1.75,2.68,2.81,5.84,2.96,9.24.01.26.04.52.04.79v107.39c0,11.74-4.88,22.36-12.71,29.95-.47.45-.95.9-1.43,1.33-.45.4-.91.79-1.38,1.17-.91.74-1.86,1.45-2.83,2.11-.9.61-1.83,1.18-2.78,1.72-.5.29-1.01.56-1.53.83-1,.51-2.01.99-3.05,1.43-.28.12-.57.23-.85.34-.23.09-.47.19-.7.28-1.04.38-2.1.72-3.17,1.02-2.34.66-4.76,1.12-7.25,1.36-.24.02-.48.04-.72.06-1.65.14-3.07-1.17-3.07-2.83v-3.74s0-4.05,0-4.05v-79.55h0v-10h0v-48.83ZM352.11,298.66c1.34-1,2.79-1.78,4.3-2.37,2.93-1.15,6.13-1.54,9.33-1.07l4.68.68c4.92.72,9.1,3.35,11.91,7.01,1.62,2.11,2.77,4.56,3.35,7.2.47,2.12.59,4.35.26,6.62l-1.93,13.23-1.69,11.55-1.01,6.93-.95,6.54-.12.81-9.81,67.2c-1.61,11.04-7.42,20.78-16.37,27.44-.71.53-1.44,1.03-2.17,1.51-2.04,1.33-4.17,2.48-6.38,3.42-.13.06-.27.12-.4.17-2.45,1.02-4.99,1.8-7.58,2.34-1.53.31-3.08.53-4.65.67.6-.55,1.18-1.11,1.75-1.69,3.73-3.76,6.87-8.08,9.31-12.83,2.14-4.17,3.75-8.65,4.7-13.38.66-3.3,1.02-6.72,1.02-10.22v-107.39c0-3.01-.47-5.9-1.34-8.62-.28-.89-.09-1.87.49-2.59.95-1.18,2.05-2.25,3.29-3.17ZM240.9,455.35c-2.23-.95-4.35-2.11-6.37-3.42-9.71-6.32-16.76-16.61-18.56-28.94l-9.81-67.2-.12-.81-.95-6.54h0s-1.01-6.93-1.01-6.93l-1.69-11.55-1.93-13.23c-.33-2.27-.21-4.5.26-6.62.56-2.51,1.62-4.86,3.12-6.9,2.81-3.83,7.09-6.58,12.14-7.32l4.68-.68c.9-.13,1.79-.19,2.67-.19,2.39,0,4.69.48,6.82,1.34,2.89,1.16,5.45,3.04,7.42,5.45.6.73.8,1.72.51,2.62-.87,2.72-1.34,5.62-1.34,8.62v50.04h0v57.35c0,3.5.35,6.91,1.02,10.22.95,4.72,2.55,9.21,4.7,13.38,2.44,4.75,5.59,9.07,9.31,12.83.57.57,1.15,1.13,1.74,1.67-1.55-.14-3.08-.36-4.59-.67-2.36-.49-4.66-1.18-6.88-2.05-.37-.15-.75-.29-1.12-.45ZM262.25,452.88c-1.3-1.06-2.54-2.19-3.71-3.39-7.3-7.52-11.81-17.77-11.81-29.06v-55.12h0v-52.27c0-.27.03-.52.04-.79.15-3.4,1.2-6.56,2.96-9.24.99-1.52,2.2-2.88,3.58-4.04,3.19-2.68,7.31-4.31,11.8-4.31h4.73c1.84,0,3.62.28,5.3.79.92.28,1.8.64,2.65,1.04.46.22.92.46,1.36.72,1.09.64,2.1,1.39,3.03,2.24.6.55,1.18,1.12,1.7,1.75.91,1.07,1.68,2.25,2.33,3.51,1.28,2.5,2.02,5.33,2.02,8.33v48.83h0v10h0v87.34c0,1.65-1.4,2.96-3.05,2.83-.09,0-.18-.02-.27-.02-1.74-.15-3.46-.4-5.13-.75-1.04-.22-2.06-.49-3.06-.79-.59-.18-1.18-.36-1.76-.56-.55-.19-1.09-.39-1.63-.6-.58-.23-1.16-.47-1.72-.72-.43-.19-.85-.38-1.27-.58-.83-.4-1.64-.84-2.44-1.3-1.98-1.13-3.85-2.41-5.61-3.84ZM293.2,500.06c-1.37,0-2.74-.02-4.11-.05-2.47-.05-4.92-.16-7.36-.31-1.49-.09-2.64-1.34-2.64-2.83v-24.68s0-.87,0-.87c1.89.35,3.81.59,5.77.73,1.11.08,2.22.13,3.34.13h0s.27,0,.27,0h9.73c1.04-.01,2.08-.06,3.1-.12,2.71-.18,5.36-.56,7.93-1.14.4-.09.81-.19,1.21-.29,1.78-.44,3.49.92,3.49,2.75v22.93c0,1.45-1.09,2.68-2.54,2.82-5.98.6-12.06.92-18.2.92ZM472.32,320.94c0,84.76-59.18,155.96-138.38,174.44-2.2.52-4.42,1-6.66,1.43-1.74.34-3.34-1.02-3.34-2.79v-22.54c0-1.62,1.36-2.9,2.98-2.82.75.03,1.49.05,2.24.05,1.61,0,3.2-.08,4.78-.23,6.77-.63,13.23-2.6,19.08-5.66.5-.26,1.07-.37,1.64-.3,1.97.23,3.94.35,5.91.35,17.16,0,34.14-8.64,45.52-25.62.14-.21.25-.43.33-.67l38.51-109.66c4.8-13.67-1.53-28.6-14.22-34.84-1.23-.6-1.85-1.97-1.51-3.3,2.38-9.05,3.66-18.55,3.66-28.35v-43.14c0-2.74,3.51-3.89,5.13-1.68,21.57,29.58,34.32,65.98,34.32,105.31ZM377.66,167.98s-.06.03-.09.05c-1.89,1.05-4.2-.32-4.2-2.48v-.1c0-2.14,2.29-3.51,4.18-2.5.03.02.06.03.09.05,1.98,1.06,1.99,3.89.02,4.98ZM213.03,165.46v.1c0,2.16-2.31,3.52-4.2,2.48-.03-.02-.06-.03-.09-.05-1.96-1.09-1.96-3.92.02-4.98.03-.02.06-.03.09-.05,1.89-1.01,4.18.36,4.18,2.5ZM114.08,320.94c0-39.33,12.75-75.73,34.32-105.31,1.61-2.21,5.13-1.06,5.13,1.68v43.13c0,9.79,1.27,19.29,3.65,28.35.35,1.32-.28,2.69-1.51,3.3-12.69,6.25-19.02,21.17-14.22,34.84l35.58,101.32c4.58,13.04,13.96,23.52,26.43,29.5,7.1,3.41,14.71,5.13,22.36,5.13,1.97,0,3.94-.12,5.91-.35.56-.07,1.13.04,1.64.3,7.22,3.77,15.36,5.88,23.87,5.88,2.48,0,4.99-.18,7.51-.55l1.28-.19.75-.11c.51-.07,1.04,0,1.51.2.27.11.53.22.8.33.03.01.07.03.1.04-.03,0-.07,0-.1-.01v26.73c0,1.73-1.54,3.07-3.24,2.81-85.82-13.21-151.77-87.56-151.77-177.03Z"/>
      </g>
      <g>
        <g>
          <path class="cls-6" d="M36.78,430.57c.8,5.01-1.05,8.12-5.07,9.9-5.85,2.59-10.45-1-13.99-9-1.7-3.84-2.8-7.18-2.45-7.99.18-.57.57-1.18,1.96-1.74,8.68-3.73,16.35-6.8,23.61-9.91-1.68-2.43-3.32-3.29-5.1-2.5-1.97.87-2.08,1.96-2.32,2.78-.41,1.17-1.42,1.23-2.5.89-1.61-.54-2.41-1.5-2.2-3.12.26-1.76,1.33-4.04,4.8-5.57,5.58-2.47,11.34,1.65,15.57,11.21,3.62,8.18,2.92,13.75-3.16,16.44-3.61,1.6-6.63,1.08-9.14-1.37ZM30.27,423.29c-2.72,1.15-5.36,2.21-8.19,3.36.29.91.69,1.94,1.14,2.94,1.92,4.34,3.58,5.74,6.55,4.42,3.02-1.34,3.24-4.66,1.52-8.55-.36-.82-.69-1.55-1.02-2.17ZM43.79,417.4c-3.15,1.4-5.94,2.63-8.57,3.74.16.37.3.69.45,1.01,1.66,3.75,3.55,5.92,6.89,4.44,3.06-1.36,3.52-4.02,1.44-8.73-.06-.14-.14-.32-.2-.46Z"/>
          <path class="cls-6" d="M36.3,450.81c-1.02,1.66-.86,3.36.22,5.27,2.65,4.71,7.73,6.38,9.75,6.62,1.38.2,2.21,1.28,1.8,2.49-.37,1.18-1.63,1.49-2.84,1.48-3.16-.11-9.78-1.67-13.75-8.72-3.44-6.1-1.06-11.97,5.56-15.7,7.1-4,13.94-2.86,16.84,2.28,2.01,3.57.76,6.86-2.5,8.7-5.01,2.82-10.31,1.05-15.07-2.41ZM39.62,447.85c3.23,1.86,6.02,2.64,8.46,1.26,1.13-.64,1.49-1.53.95-2.49-.88-1.57-3.64-2.08-8.48.64-.35.2-.65.37-.93.58Z"/>
          <path class="cls-6" d="M43.03,477c-2.13-3.21-1.73-5.76-1.27-7.14.57-1.58,1.46-2.05,3.08-1.69,1.4.39,2.08.96,1.84,1.96-.35,1.37-.79,2.69.12,4.06.58.87,1.34,1.21,2.3.57,1.37-.91,1.95-4.66,3.1-7.71-1,.12-2,.25-2.98.3-7.78.49-11.84-2.45-14.8-5.1-1.47-1.3-1.47-2.21-.14-3.45,1.26-1.26,2.55-.68,3.95.43,3.44,2.82,6.78,3.24,10.9,2.84,2.57-.21,4.92-.81,6.87-1.51,1.14-1.18,2.3-2.13,3.59-2.99,1.96-1.3,3.3-.99,4.66,1.04,1.47,2.21,1.29,3.29-.59,4.53-.92.61-2.55,1.4-4.58,2.14-.86,1.6-1.51,3.41-2.15,5.34-1.08,3.42-1.67,7.06-4.54,8.97-3.16,2.11-6.95,1.02-9.36-2.6Z"/>
          <path class="cls-6" d="M65.29,497.96c4.22,3.54,7.3,4.28,10.1,4.42,1.84.07,2.75.56,2.7,1.94.01,1.46-1.25,1.96-2.73,2.11-4.99.39-12-2.4-17.37-8.99-1.96-1.82-3.36-3.58-4.24-5.25-1.76,1.4-3.64,2.89-5.67,4.51-1.41,1.12-2.52.6-4.03-1.21-1.6-1.93-1.06-2.86,1.17-4.63,11.58-9.21,23.33-18.37,24.99-19.5,1.53-.96,2.57-.38,3.92,1.48,1.28,1.86,1.05,2.61-.96,4.09l-.23.19c1.69.51,3.32,1.45,4.91,3.44,3.49,4.38,2.54,9.54-3.17,14.09-3.36,2.68-6.52,3.53-9.38,3.31ZM69.03,480.02c-2.85,2.2-6.42,5.11-10.99,8.75.25,1.2.84,2.34,1.83,3.66,2.26,1.08,6.2,1.13,10.31-2.13,3.48-2.77,4.42-5.05,2.33-7.67-1.12-1.41-2.28-2.14-3.48-2.6Z"/>
          <path class="cls-6" d="M85.39,519.79c4.37,2.66,8.16,2.69,10.18,2.48,1.24-.08,2.25.54,2.37,1.74.16,1.17-.53,1.97-2.41,2.4-3.48.79-11.28-.09-18.4-7.47-.07-.07-.14-.14-.24-.25-.73-.47-1.43-1.05-2.13-1.77-4.69-4.86-4.23-10.58,1.42-16.03,2.55-2.46,5.26-3.55,7.92-3.68,4.06-1.62,8.15-.92,11.31,2.36,4.03,4.17,3.69,9.44-2.72,15.62-2.41,2.33-4.88,3.88-7.3,4.61ZM79.72,514.92c2.21.92,5.47-1.11,8.24-3.78,4.14-3.99,5.17-6.38,3.16-8.47-1.98-2.05-4.98-2.21-9.52,2.17-4.79,4.62-4.3,7.28-1.88,10.08Z"/>
          <path class="cls-6" d="M107.35,537.06c-.91,1.06-.91,1.59-.19,2.21,1.71,1.47,5.94.76,8.16.03,1.32-.38,2.54-.12,2.96,1.16.44,1.17-.5,2.34-2.04,2.99-2.65,1.09-9.52,2.56-13.88-1.19-3.11-2.67-3.03-5.38-.29-8.56l1.76-2.05c1.34-1.55,1.27-2.93-.89-4.79-.61-.52-1.21-.97-1.84-1.32-1.77,1.98-3.56,4.06-5.29,6.07-1.96,2.27-3.01,2.42-4.75.92-1.71-1.47-1.76-2.7-.2-4.52,8.51-9.89,16.52-18.97,20.08-22.96,2.03-2.21,2.98-1.86,4.72-.43,1.78,1.46,1.62,2.71.02,4.5-2.19,2.47-6.18,6.88-10.66,11.93,4.73.25,9.41-.28,11.96-.33,1.63-.05,2.34.89,2.53,2.51.2,1.76-.55,2.63-2.27,2.86-2.25.31-5.64.42-9.18.09,2.74,2.56,3.92,5.49,1.22,8.63l-1.92,2.24Z"/>
          <path class="cls-6" d="M119.22,544.9c-.34,2.1.5,3.75,2.53,5.21,2.6,1.87,4.87,1.96,6.65,1.89,1.25-.02,1.83.46,1.66,2.06-.09,1.66-.62,2.57-1.96,2.72-2.48.37-6.2-.21-9.6-2.66-6.37-4.59-6.62-10.99-2.15-17.2,4.76-6.61,11.46-8.63,16.45-5.04,3.37,2.43,3.66,5.96,1.46,9-3.42,4.75-9.1,5.28-15.04,4.02ZM121.03,540.85c3.87.44,6.66,0,8.41-2.44.76-1.06.79-1.96-.14-2.63-1.58-1.14-4.39-.32-7.66,4.22-.2.29-.41.57-.61.85Z"/>
          <path class="cls-6" d="M160.94,557.34c-2.29-1.23-4.04-2.63-5.4-4.22-.82,1.09-1.64,2.3-2.42,3.75-3.35,6.21-3.12,10.53,2.12,13.36,3.74,2.02,6.76,1.37,8.79.76,1.63-.6,2.55.12,2.86,1.65.37,1.85-.16,3.04-1.68,3.75-2.56,1.17-7.42,1.85-12.88-1.09-8.54-4.6-10.21-12.15-5.27-21.31,1.52-2.82,3.24-5.07,5.13-6.78-.78-2.35-.97-4.73-.98-6.83.05-1.57.68-2.42,2.45-2.54,2.08-.07,2.77.24,2.84,1.36.11,1.59.15,3.21.41,4.82,4.58-2.07,9.56-1.72,13.92.63,4.89,2.63,7.11,6.84,4.78,11.16-2.33,4.31-8.03,5.1-14.68,1.52ZM159.39,549.68c1.02,1.17,2.39,2.31,4.33,3.36,3.35,1.8,5.64,1.56,6.35.24s0-2.73-1.9-3.75c-2.51-1.35-5.63-1.67-8.78.15Z"/>
          <path class="cls-6" d="M187.22,562.48c1.85.76,2.96,1.87,3.66,3.07l.02-.04c.92-1.84,2.09-1.79,4.08-.97,1.62.67,2.58,1.49,1.76,3.21-1.8,3.59-4.36,9.29-6.27,13.91-1.39,3.38-1.49,4.41-.29,4.91,2.59,1.07,5.65-.97,8.06-2.63,1.04-.82,2.09-.49,2.72.36.69.82.54,1.84-.68,2.96-2.27,2.09-8.51,5.69-13.78,3.52-2.4-.99-3.44-2.55-3.55-4.65-1.96.82-4.39,1.22-7.12.1-4.85-2-6.77-7.06-3.14-15.89,3.41-8.28,9.45-9.95,14.53-7.86ZM179.29,581.87c1.57.65,3.04.49,4.48-.11.26-.76.54-1.56.9-2.44,1.27-3.1,2.78-6.48,4.09-9.4-.47-.84-1.24-1.59-2.49-2.1-3.05-1.26-5.86-.09-7.84,4.72-2.4,5.83-1.54,8.34.86,9.33Z"/>
          <path class="cls-6" d="M214.98,592.46c-.41,1.34-.19,1.82.72,2.1,2.15.66,5.75-1.7,7.48-3.26,1.05-.88,2.28-1.13,3.18-.13.88.89.49,2.34-.67,3.56-1.99,2.06-7.69,6.17-13.19,4.49-3.92-1.2-4.93-3.7-3.71-7.72l.79-2.58c.6-1.96-.02-3.19-2.74-4.03-.77-.23-1.5-.41-2.21-.47-.82,2.52-1.62,5.15-2.4,7.69-.88,2.87-1.78,3.43-3.98,2.76-2.15-.66-2.7-1.77-2-4.06,3.81-12.48,7.49-24.01,9.15-29.1.97-2.84,1.98-2.9,4.15-2.29,2.21.62,2.58,1.83,1.83,4.11-1.01,3.14-2.89,8.79-4.96,15.21,4.43-1.68,8.5-4.04,10.82-5.12,1.47-.7,2.5-.13,3.32,1.28.89,1.53.56,2.63-.92,3.54-1.93,1.19-4.99,2.66-8.37,3.77,3.54,1.24,5.8,3.44,4.59,7.41l-.86,2.82Z"/>
          <path class="cls-6" d="M229.19,594.84c.57,1.86,1.93,2.88,4.08,3.34,5.28,1.15,9.9-1.53,11.42-2.89,1.06-.89,2.43-.8,3.05.31.64,1.06.03,2.21-.78,3.11-2.19,2.29-7.74,6.2-15.66,4.48-6.84-1.49-9.65-7.16-8.03-14.59,1.73-7.96,7.13-12.32,12.89-11.06,4.01.87,5.63,3.99,4.83,7.65-1.22,5.62-6.07,8.4-11.82,9.66ZM229.19,590.39c3.53-1.18,5.97-2.74,6.56-5.48.28-1.27-.15-2.13-1.23-2.37-1.76-.38-3.97,1.34-5.15,6.76-.08.39-.16.73-.18,1.09Z"/>
          <path class="cls-6" d="M253.24,607.22c-3.81-.54-5.45-2.54-6.18-3.8-.8-1.48-.56-2.45.79-3.42,1.22-.79,2.1-.92,2.69-.08.79,1.17,1.48,2.38,3.12,2.61,1.04.15,1.8-.2,1.96-1.34.23-1.63-2.19-4.55-3.7-7.44-.57.83-1.14,1.66-1.76,2.43-4.8,6.14-9.7,7.22-13.65,7.67-1.95.23-2.62-.37-2.67-2.19-.1-1.78,1.19-2.36,2.95-2.67,4.39-.69,6.92-2.91,9.36-6.25,1.55-2.05,2.66-4.22,3.44-6.13-.12-1.63-.06-3.14.15-4.68.33-2.33,1.45-3.13,3.88-2.79,2.62.37,3.31,1.22,3,3.45-.15,1.09-.65,2.84-1.44,4.85.62,1.7,1.54,3.4,2.56,5.16,1.84,3.09,4.16,5.94,3.68,9.36-.53,3.76-3.86,5.87-8.16,5.26Z"/>
          <path class="cls-6" d="M290.43,590.57c.45.26.94.52,1.44.82,1.73,1.03,3.42,1.96,5,2.88,1.4-2.93,2.31-6.61,2.88-11.2.12-1.35.73-2.04,3.18-1.7,2.19.34,2.78.99,2.61,2.54-.64,5.29-1.96,9.82-3.92,13.49,2.47,1.99,4.08,4.37,4.02,7.87-.1,6.35-4.46,10.18-8.76,12.66-1.56.88-2.82,1.15-4.09-.62-1.22-1.77-1.01-2.67.26-3.55,3.03-1.95,6.37-4.15,6.42-7.6.02-1.5-.61-2.71-1.69-3.78-3.73,4.84-8.12,7.57-14.17,7.47-5.75-.09-9.49-3.65-9.4-9.2.08-4.75,2.82-7.25,6.55-9.54-2.17-1.84-3.68-4.11-3.63-7.61.09-5.5,4.55-9.18,10.5-9.08,5.1.08,8.2,3.08,8.13,7.43-.07,4.15-2.26,6.71-5.34,8.71ZM284.66,604.33c3.8.06,6.53-1.7,8.83-5.01-1.93-1.18-4.26-2.47-6.83-4.16-.69-.46-1.39-.92-2.08-1.33-2.68,1.76-4.05,3.19-4.1,5.88-.05,2.95,1.78,4.58,4.18,4.62ZM286.42,588.15c2.48-1.66,3.76-3.44,3.79-5.64.03-1.8-1-3.02-2.9-3.05-2.3-.04-4.07,1.38-4.11,3.88-.03,2.1,1.19,3.42,3.22,4.8Z"/>
          <path class="cls-6" d="M337.28,592.36c-1.44.2-2.84.24-4.11.21-2.97,1.17-4.86,2.84-4.5,5.46.41,2.97,2.15,3.9,5.86,3.39,4.26-.58,6.55-3.07,7.94-5.03.85-1.18,1.78-1.36,3.3-.25,1.51,1.1,1.95,2.1,1.14,3.53-1.49,2.73-5.16,6.56-12.49,7.57-6.99.96-11.38-1.67-12.16-7.32-.55-4.01,1.34-7.15,4.47-9.4-2.13-1.53-3.56-3.9-4-7.12-.06-.45-.12-.84-.12-1.25-2.3-1.3-4.07-3.18-5.4-5.12-.87-1.19-.64-2.08.5-2.95,1.46-1.11,2.3-1.28,3.16-.18.98,1.23,1.9,2.42,2.94,3.38,1.78-3.22,5.33-5.32,9.44-5.89,4.41-.61,7.58.83,8.1,4.59.48,3.52-3.11,6.79-9.7,7.69-1.09.15-2.14.19-3.11.12.66,2.23,2.03,3.41,4.31,3.85,1.26-.38,2.58-.66,3.92-.84,2.03-.28,3.03.04,3.17,2.49.14,2.15-.38,2.73-2.66,3.04ZM328.39,579.39c.98.12,2.09.12,3.32-.05,3.17-.43,4.5-1.42,4.38-2.27-.12-.84-.97-1.18-2.55-.96-2.03.28-4.31,1.3-5.15,3.28Z"/>
          <path class="cls-6" d="M356.11,593.39c1.37,3.18,2.97,4.16,5.26,3.65,3.47-.76,5.06-3.52,6.61-7.4.59-1.51,1.56-1.73,2.74-1.06,1.04.54,1.34,1.65.61,3.71-1.33,3.93-3.86,8.74-9.57,10-6.05,1.34-10.46-1.94-13.06-13.71-3.62-16.41-2.09-21.1,3.37-22.3,3.47-.77,6.08,1.78,7.23,7.01,1.91,8.64.47,14.18-3.19,20.11ZM354.36,587.32c1.16-3.58,1.5-7.6.38-12.68-.57-2.59-1.06-3.4-1.79-3.24-1.22.27-1.66,2,1.41,15.92Z"/>
          <path class="cls-6" d="M374.59,590.42c1.39,1.37,3.07,1.6,5.19.98,5.18-1.52,7.96-6.08,8.65-8,.51-1.29,1.75-1.87,2.83-1.19,1.07.62,1.08,1.92.8,3.1-.83,3.05-3.84,9.14-11.61,11.42-6.72,1.96-11.9-1.68-14.03-8.97-2.29-7.82.37-14.23,6.03-15.88,3.94-1.15,6.85.81,7.91,4.41,1.61,5.52-1.32,10.28-5.76,14.14ZM372.46,586.51c2.54-2.72,3.93-5.27,3.14-7.95-.36-1.25-1.15-1.8-2.21-1.49-1.73.51-2.85,3.07-1.29,8.4.11.38.21.72.36,1.04Z"/>
          <path class="cls-6" d="M392.29,565.29c1.54-.6,2.77-.75,3.97-.68-.2-1.48.66-2.3,2.42-2.87,1.76-.58,2.78-.44,3.54,1.52,1.85,4.76,4.11,10.31,6.23,15.77,2.77-2.26,4.6-4.31,5.71-5.87,1.01-1.41,2.03-1.97,3.2-1.29,1.13.69,1.18,2.06.11,3.87-1.71,2.65-3.52,5.02-7.33,7.78.53,1.51,1.06,3.02,1.56,4.44,1.55,4.55-.61,8.93-6.44,11.19-5.87,2.28-10.34.58-11.86-3.33-1-2.56-.18-4.76,1.58-6.84-3.58-.38-6.47-2.85-8.43-7.89-3.24-8.34.41-13.73,5.72-15.79ZM400.14,583.7c1.4-.54,2.37-1.08,3.1-1.69-1.77-4.41-3.73-8.91-5.23-12.51-.89-.08-1.84-.04-3.19.49-2.47.96-4.52,3.42-2.42,8.83,1.95,5.04,4.57,6.11,7.74,4.88ZM403.4,594.45c2.56-.99,3.5-2.86,2.66-5.16-.26-.81-.6-1.7-.93-2.54-4.2,2.44-7.37,4.09-6.5,6.33.72,1.87,2.95,2.07,4.77,1.37Z"/>
          <path class="cls-6" d="M416.03,554.77c1.79-.9,3.35-1.02,4.72-.76l-.02-.04c-.79-1.9.01-2.75,1.93-3.72,1.56-.79,2.81-.97,3.58.77,1.53,3.71,4.17,9.38,6.42,13.84,1.64,3.26,2.36,4.02,3.52,3.43,2.5-1.26,2.96-4.91,3.28-7.82.06-1.32,1-1.9,2.05-1.82,1.07.02,1.75.8,1.8,2.45.1,3.09-1.26,10.16-6.35,12.72-2.32,1.17-4.18.93-5.84-.36-.66,2.02-1.95,4.12-4.59,5.45-4.69,2.37-9.77.5-14.07-8.02-4.03-7.99-1.35-13.66,3.57-16.14ZM425.52,573.45c1.52-.77,2.36-1.97,2.85-3.45-.4-.69-.83-1.43-1.26-2.28-1.51-2.99-3.09-6.34-4.44-9.24-.94-.2-2.01-.11-3.22.5-2.95,1.49-3.9,4.38-1.56,9.02,2.84,5.62,5.3,6.62,7.62,5.45Z"/>
          <path class="cls-6" d="M437.7,545.69c.19.3.37.59.54.96.58-2.73,1.85-5.12,4.22-6.62,3.3-2.08,6.6-1.44,9.1,2.54,2.08,3.3,4.37,7.41,5.76,9.61,1.01,1.61,1.74,1.92,2.63,1.36,1.82-1.15,2.41-5.36,2.46-7.63,0-1.42.54-2.53,1.92-2.57,1.25-.08,2.05,1.19,2.26,2.83.22,2.88-.37,9.92-5.23,12.99-3.55,2.24-6.18,1.17-8.6-2.68-1.76-2.79-4.35-7.19-5.52-9.05-1.2-1.9-2.26-2.36-3.82-1.37-1.52.96-2.21,2.22-2.83,4.5,2.13,3.56,4.61,7.5,7.54,12.15,1.63,2.58,1.48,3.56-.55,4.84-1.95,1.23-3.14.92-4.45-1.15-4.13-6.56-7.1-11.54-10.85-17.69-.89-1.51-.36-2.55,1.43-3.74,1.77-1.23,2.92-1.19,4,.73Z"/>
          <path class="cls-6" d="M467.07,529.78c-1.05.85-2.81,2.25-4.66,3.7,1.89,2.58,3.86,5.29,5.73,7.76,2.41,3.19,4.06,3.39,5.9,2,1.56-1.17,2.06-2.5,2.48-3.94.37-1.34,1.17-1.44,2.76-.83,1.65.7,2.09,1.61,1.79,2.79-.48,2.18-1.67,4.76-4.62,6.99-3.75,2.83-8.29,3.37-12.9-2.74-1.96-2.59-4.05-5.46-6.09-8.24-.32.24-.6.45-.88.66-1.16.87-1.82.74-3.23-1.13-1.08-1.44-1.11-2.3-.1-3.12.28-.21.64-.48,1.01-.82-1.44-1.99-2.72-3.77-3.64-5.08-.71-1.03-.19-1.99,1.65-3.37,2.2-1.66,2.84-1.14,3.52-.15.86,1.23,2.06,2.89,3.4,4.76,1.93-1.52,3.8-2.93,4.84-3.71,1.33-1.06,1.98-.62,3.18.98,1.14,1.52,1.51,2.25-.13,3.48Z"/>
          <path class="cls-6" d="M502.07,526.36c-3.61,3.53-7.79,3.7-11.11.3-2.31-2.36-2.67-5.02-2.79-6.57-.09-1.66.56-2.36,2.19-2.84,1.6-.51,2.34-.4,2.67,1.16.24,1.03.4,2.41,1.55,3.59,1.4,1.43,2.57,1.27,3.42.43,1.75-1.71,1.27-3.27-1.14-5.74-3.22-3.29-6.5-6.44-9.79-9.8-1.19-1.21-2.27-2.39-3.25-3.39-.97.94-1.97,1.92-3,2.94-2.29,2.24-3.01,3.79-1.68,5.14,1.5,1.54,3.28,1.13,4.37,1.18,1.31-.02,1.76,1.08,1.77,2.53.02,1.59-.88,2.89-2.65,3.08-1.81.3-5.02.3-8.1-2.85-3.29-3.36-2.95-8.31,1.66-12.82,1.32-1.29,2.61-2.55,3.75-3.74-.87-1.32-.61-2.27,1.25-3.95,1.61-1.43,2.42-1.74,3.4-.88,1.68-1.71,3.18-3.32,4.47-4.72,1.68-1.79,2.49-1.67,4.1-.17,1.72,1.54,1.6,2.63.2,4.28-1.15,1.4-2.79,3.15-4.72,5.11.98,1.07,2.06,2.25,3.28,3.5,3.29,3.36,6.36,6.29,9.93,9.94,4.61,4.72,4.73,9.85.19,14.29Z"/>
          <path class="cls-6" d="M521.68,493.07c1.48,1.27,2.41,1.41,3.13.58,1.47-1.71.86-5.92.19-8.21-.35-1.36-.23-2.57,1.01-3.02,1.21-.41,2.37.38,3.04,2.14,1.06,2.76,2.57,9.45-1.18,13.81-2.96,3.45-5.79,3.14-9.36.08-2.69-2.31-5.9-5.33-7.95-7.09-1.48-1.27-2.72-1.67-3.92-.27-.29.34-.55.64-.78.98,5.49,5.43,9.32,11.56,11.29,17.4.6,1.76-.34,2.93-2,3.56-1.93.71-2.8.04-3.51-1.89-1.79-4.83-4.7-9.96-9.21-14.76-1.06.54-2.49.37-4.58-1.42-2.2-1.89-2.45-3.75-.76-5.72,1.63-1.9,3.02-1.83,4.89-.55.58-.75,1.19-1.54,1.91-2.38,3.22-3.76,6.34-3.39,9.75-.46,2.92,2.51,6.02,5.5,8.03,7.22Z"/>
          <path class="cls-6" d="M530.52,481.34c1.93.23,3.41-.62,4.7-2.4,3.17-4.37,2.57-9.68,1.94-11.62-.39-1.33.24-2.54,1.51-2.67,1.23-.16,2.03.86,2.53,1.96,1.22,2.92,2.57,9.58-2.19,16.14-4.11,5.67-10.43,5.96-16.59,1.5-6.6-4.78-8.42-11.47-4.96-16.25,2.41-3.32,5.91-3.56,8.95-1.36,4.66,3.37,5.26,8.93,4.1,14.7ZM526.44,479.55c.34-3.71-.12-6.57-2.38-8.21-1.05-.76-2.01-.72-2.66.17-1.06,1.46-.37,4.18,4.12,7.43.32.23.61.44.92.61Z"/>
          <path class="cls-6" d="M528.81,451.1c1.03-1.71,2.3-2.64,3.59-3.15l-.04-.03c-1.68-1.19-1.45-2.34-.34-4.18.9-1.5,1.87-2.32,3.44-1.25,3.27,2.32,8.52,5.72,12.8,8.3,3.13,1.88,4.14,2.14,4.81,1.03,1.45-2.4-.11-5.73-1.38-8.36-.65-1.15-.17-2.14.77-2.63.92-.56,1.9-.25,2.83,1.12,1.73,2.56,4.34,9.27,1.39,14.15-1.34,2.23-3.04,3.01-5.13,2.8.51,2.06.54,4.53-.98,7.05-2.71,4.5-8,5.62-16.18.69-7.66-4.62-8.4-10.85-5.56-15.56ZM546.77,461.88c.88-1.46.95-2.93.58-4.44-.71-.37-1.46-.77-2.28-1.26-2.87-1.73-5.99-3.72-8.67-5.46-.9.33-1.76.98-2.46,2.14-1.7,2.83-.97,5.78,3.48,8.46,5.39,3.25,8.01,2.79,9.35.56Z"/>
          <path class="cls-6" d="M547.79,427.86c-.51,1.03-1.29,2.71-2.13,4.52,2.84,1.47,5.87,3.03,8.87,4.52,3.72,1.85,5.68,1.37,6.8-.87,1.74-3.49.63-6.33-1.35-9.88-.9-1.67-.5-2.7.53-3.2,1.05-.54,2.35,0,3.38,1.62,2,3.17,4.65,8.51,1.78,14.29-2.27,4.57-5.82,7.66-13.34,3.93-3.09-1.54-6.25-3.16-9.16-4.72-.16.31-.27.65-.38.87-.64,1.63-1.49,1.55-3.42.7-1.72-.69-2.08-1.43-1.57-2.79.11-.34.29-.8.56-1.34-2.13-1.11-3.96-2.14-5.37-2.89-1.37-.73-1.15-1.96-.17-3.94,1.09-2.2,1.83-2.11,3.19-1.37,1.23.67,2.91,1.56,4.81,2.56.89-2.02,1.8-3.85,2.29-4.84.82-1.66,1.61-1.44,3.35-.57,1.61.8,2.37,1.29,1.33,3.39Z"/>
          <path class="cls-6" d="M573.82,420.31c-1.41,3.42-3.46,4.47-4.76,4.75-1.79.4-2.6.01-3.16-1.52-.51-1.4-.29-2.44.82-2.79,1.1-.31,2.07-.56,2.62-1.9.42-1.02.26-1.95-.8-2.38-1.62-.66-5.31.69-8.7,1.56l-.05-.02c.73.73,1.45,1.46,2.16,2.24,5.84,6.45,6.47,12.93,4.86,16.86-.55,1.34-1.29,1.69-2.53,1.29-1.33-.44-1.42-1.67-1.32-3.62.18-4.9-1.86-8.22-4.87-11.3-1.84-1.84-4-3.43-5.77-4.64-1.51-.13-2.93-.5-4.32-1.07-2.17-.89-2.67-2.18-1.74-4.45.97-2.36,1.95-2.77,4.03-1.91.93.38,2.3,1.11,3.86,2.18,1.89-.25,4.05-.77,6.22-1.45,3.49-1,6.92-2.51,10.16-1.18,3.42,1.41,5.02,5.14,3.29,9.35Z"/>
        </g>
        <g>
          <circle class="cls-1" cx="293.2" cy="307.92" r="283.61"/>
          <path class="cls-6" d="M148.29,85.98c-4.26,2.71-8.38,2.01-10.93-2-1.77-2.78-1.58-5.46-1.38-7.01.26-1.65,1.03-2.2,2.73-2.33,1.67-.17,2.37.09,2.38,1.69.02,1.05-.11,2.44.78,3.83,1.07,1.69,2.25,1.77,3.26,1.12,2.07-1.31,1.92-2.94.07-5.85-2.47-3.88-5.04-7.64-7.56-11.61-.91-1.44-1.73-2.81-2.48-3.99-1.14.72-2.32,1.48-3.54,2.26-2.7,1.72-3.73,3.08-2.71,4.69,1.15,1.81,2.97,1.78,4.03,2.06,1.28.25,1.5,1.42,1.22,2.84-.31,1.56-1.46,2.65-3.23,2.47-1.83-.08-4.98-.74-7.34-4.46-2.52-3.97-1.17-8.74,4.27-12.2,1.56-.99,3.08-1.96,4.45-2.89-.58-1.47-.13-2.35,2.03-3.61,1.87-1.07,2.73-1.2,3.51-.16,2-1.33,3.8-2.6,5.35-3.7,2.01-1.4,2.78-1.12,4.05.68,1.36,1.86,1.02,2.91-.69,4.23-1.41,1.13-3.38,2.51-5.68,4.03.74,1.25,1.55,2.63,2.49,4.11,2.52,3.96,4.93,7.47,7.67,11.77,3.54,5.57,2.6,10.61-2.76,14.02Z"/>
          <path class="cls-6" d="M162.75,53.53c3.04-1.53,6.79-3.41,10.35-5.14-1.9-4.03-3.71-7.87-5.37-11.29-.72-1.49-.02-2.44,2.41-3.62,1.84-.9,2.83-.93,3.59.64,1.84,3.78,3.6,7.54,5.42,11.27l.81-.39c1.57-.77,2.2-.62,3.31,1.56.94,1.93.98,2.7-.64,3.48-.31.15-.67.33-1.08.52,1.84,3.78,3.63,7.58,5.48,11.4.79,1.62.22,2.62-2.12,3.76-2.29,1.12-3.21.84-4.04-.87-1.84-3.78-3.63-7.58-5.35-11.24-3.44,1.73-7.15,3.59-10.24,5.14,1.68,3.57,3.47,7.26,5.31,11.04.79,1.62.13,2.55-2.15,3.71-2.07,1.12-3.12,1.02-4.06-.92-4.89-10.08-9.43-19.99-13.06-27.46-.72-1.48-.35-2.33,2.3-3.62,2.38-1.16,2.94-.82,3.64.62,1.86,3.82,3.67,7.56,5.48,11.4Z"/>
          <path class="cls-6" d="M204.31,32.36c-.35,1.08-.88,1.54-2.76,1.63-1.47.05-2.35-.48-2.37-1.27,0-.74.08-1.09-.17-1.8-.58-1.6-2.27-2.16-4.62-1.31-3.01,1.08-4.62,3.26-3.72,5.75,1.05,2.92,3.06,4.21,6.37,3.97,1.11-.61,2.34-1.16,3.61-1.62,1.6-.58,2.45-.72,3.23,2.03.67,2.31.24,2.73-1.5,3.36-1.41.51-2.78.84-4.09,1.05-2.97,2.08-4.04,4.27-3.23,6.53.95,2.63,3.34,3.37,6.4,2.27,4-1.44,5.94-3.42,7.14-5.55.77-1.39,1.54-1.78,3.29-.76,1.52.83,2.33,1.61,1.55,3.43-1.33,3.08-4.7,6.42-10.49,8.51-6.82,2.46-11.86.71-13.88-4.89-1.22-3.39-.15-6.91,2.39-9.89-3.06-.97-5.44-3.14-6.64-6.48-1.93-5.36,1.43-10.5,7.87-12.82,5.83-2.1,9.84.02,11.23,3.88.64,1.79.67,3.05.38,4.01Z"/>
          <path class="cls-6" d="M236.79,28.54c-2.55.53-4.78.58-6.84.24.08,1.36.22,2.81.56,4.43,1.43,6.9,4.38,10.07,10.21,8.87,4.16-.86,6.06-3.3,7.22-5.07.86-1.51,2.03-1.54,3.25-.57,1.47,1.18,1.83,2.43,1.12,3.96-1.21,2.55-4.49,6.19-10.56,7.45-9.5,1.96-15.63-2.74-17.74-12.93-.65-3.13-.78-5.97-.43-8.49-2.11-1.3-3.79-2.99-5.14-4.6-.97-1.23-1.04-2.29.24-3.52,1.55-1.39,2.27-1.59,3.05-.79,1.11,1.15,2.17,2.36,3.42,3.43,2.18-4.54,6.22-7.46,11.06-8.47,5.44-1.12,9.84.67,10.83,5.47.99,4.8-2.87,9.07-10.27,10.6ZM230.68,23.68c1.53.24,3.32.23,5.47-.21,3.72-.77,5.32-2.43,5.01-3.9-.3-1.47-1.76-2.09-3.86-1.65-2.79.58-5.39,2.34-6.62,5.76Z"/>
          <path class="cls-6" d="M275.79,26.18c.15-.01.3-.03.45-.04,2.44-.23,3.13.15,3.42,2.13.3,2.13-.29,2.79-2.11,3.12.86,2.68,1.72,5.36,2.48,8.1.47,1.81.38,2.88-2.38,3.49-2.95.68-3.59.29-4.16-2.02-.79-2.99-1.66-5.87-2.54-8.7-2.73.31-5.71.64-8.3.89-.45.04-.85.08-1.25.07-.31,2.59-.61,5.23-.86,8.37-.19,2.23-.52,2.96-3.38,2.98-2.56.04-3.03-1.27-2.87-3.19.59-6.48,1.2-11.16,2.33-16.65.94-4.86,2.25-9.56,3.24-12.36.96-2.55,1.38-3.4,4.72-3.71,2.49-.24,3.16,0,4.41,2.04,1.71,2.7,3.82,7.37,5.57,12.08.41,1.12.82,2.23,1.23,3.4ZM262.17,27.73c2.54-.24,4.87-.52,7.01-.77-.09-.39-.22-.73-.36-1.12-1.34-4.04-2.45-7.25-4.01-11.02-.93,3.45-1.66,6.84-2.42,11.48-.05.51-.16.97-.22,1.43Z"/>
          <path class="cls-6" d="M308.54,42.09c-1.72,1.47-3.32,1.5-4.7.22-1.62-1.63-3.19-4-4.92-7.93-1.74-3.88-3.1-6.15-5.03-7.33-.95.29-2.01.52-3.21.6-.12,4.25-.29,8.45-.45,12.54-.08,1.65-.89,2.39-3.54,2.24-2.8-.15-3.39-.71-3.3-2.96.43-10.84.9-21.63,1.03-29.48.03-2.15.54-2.74,3.89-2.69,2.4.04,2.88.95,2.86,2.35-.06,3.8-.18,7.8-.29,11.9.95-.04,1.8.03,2.6.14,1.42-1.18,2.75-3,4.85-5.92,2.1-2.87,3.17-4.6,4.41-6.63,1.08-1.78,2.08-2.12,3.97-1.24,2.04.93,2.61,2.19,1.79,3.83-1.18,2.13-2.67,4.56-4.77,7.27-1.48,1.93-2.86,3.55-4.28,4.78,2.22,1.64,3.88,4.11,5.53,7.59,1.45,3.12,2.57,4.74,4.39,6.67,1.33,1.32,1.01,2.42-.82,4.04Z"/>
          <path class="cls-6" d="M334.33,21.36c-.79.82-1.47,1-3.2.26-1.34-.6-1.9-1.46-1.57-2.18.32-.67.56-.95.64-1.69.18-1.69-1.09-2.93-3.58-3.2-3.18-.35-5.58.9-5.87,3.54-.33,3.08.9,5.13,3.99,6.37,1.26-.06,2.62-.02,3.96.13,1.69.18,2.52.42,2.01,3.24-.41,2.37-.98,2.56-2.82,2.36-1.49-.16-2.87-.46-4.13-.85-3.58.57-5.51,2.07-5.76,4.46-.3,2.79,1.53,4.49,4.76,4.84,4.23.46,6.84-.47,8.85-1.86,1.31-.92,2.16-.92,3.29.76,1,1.42,1.39,2.46-.11,3.76-2.55,2.19-7.04,3.71-13.16,3.05-7.21-.78-10.97-4.56-10.33-10.47.39-3.58,2.89-6.28,6.48-7.85-2.33-2.21-3.51-5.21-3.13-8.74.61-5.67,5.88-8.82,12.7-8.08,6.16.67,8.84,4.33,8.39,8.4-.2,1.89-.73,3.04-1.41,3.77Z"/>
          <path class="cls-6" d="M358.79,20.79c-2.97-.09-4.48.76-4.94,2.55-.54,2.08.56,2.83.99,3.56.71,1.06.2,2.01-.94,2.85-1.39.99-2.82.93-3.99-.35-1.28-1.26-2.35-3.7-1.41-7.38,1.57-6.1,8.23-8.11,18.78-5.39,8.91,2.29,12.56,7.15,10.87,13.74-1.05,4.07-3.6,6.56-7.36,7.55.67,1.41,1.03,3.21,1.31,5.55.6,4.7.85,5.33,2.06,5.64.97.25,1.62-.46,2.24-.87.89-.65,1.76-.43,2.6.93.98,1.6.75,2.52-.49,3.7-1.22,1.13-3.34,2.55-6.68,1.69-3.44-.88-5.11-2.61-5.67-8.07-.44-4.29-.66-6.67-1.52-8.13-1.21-.11-2.51-.29-3.83-.57-.9,3.28-1.74,6.57-2.6,9.91-.46,1.79-1.11,2.5-4.01,1.75-2.42-.62-2.82-1.29-2.27-3.42,2.44-9.49,4.96-18.29,6.85-25.23ZM365.07,21.84c-.98,3.62-1.96,7.24-2.89,10.82,1.8.41,3.34.86,4.55,1.38,2.69-.44,4.29-1.84,5.05-4.79.93-3.63-.62-5.84-6.09-7.24-.24-.06-.44-.11-.63-.16Z"/>
          <path class="cls-6" d="M389.75,60.94c-8.7-3.42-11.2-10.74-7.06-21.26,2.78-7.07,6.74-10.46,11.51-11.11,2.94-1.48,6.64-1.58,10.64,0,7.87,3.09,9.97,10.31,5.94,20.55-4.37,11.12-11.96,15.39-21.04,11.83ZM391.93,55.4c5.07,1.99,9.42-.87,12.24-8.03,2.85-7.26,1.88-12.16-2.87-14.02-1.44-.57-2.84-.85-4.17-.89-3.13.87-5.69,3.41-7.83,8.85-2.98,7.59-2.4,12.11,2.63,14.09Z"/>
          <path class="cls-6" d="M435.02,56.04c-1.11.83-2.43.99-3.75-.49-1.27-1.45-1.3-2.15-.24-3.22.57-.55,1.02-.99,1.37-1.65.74-1.42.66-3.32-1.69-4.55-2.79-1.46-4.84-.89-5.88,1.11-3.49,6.69,9.61,13.25,4.78,22.51-2.45,4.7-7.55,6.15-13.49,3.06-6.83-3.56-7.73-9.5-6.86-13.33.29-1.31,1.07-2.15,3.61-1.84,2.61.29,2.27,1.81,2.2,3.68-.02,1.34.14,4.81,3.47,6.54,2.08,1.09,4.05,1.21,5.18-.96,2.91-5.58-9.54-12.42-4.52-22.04,3.1-5.94,9-5.79,13.65-3.37,4.96,2.59,6.9,7.09,4.61,11.48-.88,1.69-1.54,2.41-2.44,3.07Z"/>
          <path class="cls-6" d="M458.56,70.3c-1.08.38-1.76.23-2.97-1.21-.93-1.14-1.04-2.16-.42-2.66.59-.45.92-.59,1.33-1.22.92-1.43.35-3.11-1.75-4.47-2.68-1.74-5.39-1.71-6.83.52-1.69,2.6-1.5,4.98.69,7.48,1.16.51,2.34,1.16,3.48,1.9,1.43.92,2.06,1.51.34,3.79-1.43,1.93-2.03,1.84-3.58.84-1.26-.82-2.35-1.7-3.31-2.62-3.45-1.11-5.85-.63-7.15,1.38-1.52,2.35-.66,4.7,2.06,6.46,3.57,2.31,6.32,2.67,8.74,2.33,1.58-.23,2.35.15,2.59,2.16.26,1.71.13,2.83-1.79,3.31-3.26.8-7.96.14-13.12-3.21-6.08-3.95-7.74-9.01-4.5-14,1.96-3.02,5.41-4.3,9.32-4.08-1.08-3.02-.79-6.23,1.15-9.21,3.1-4.78,9.23-5.22,14.97-1.49,5.2,3.37,5.94,7.84,3.71,11.28-1.03,1.59-2.02,2.38-2.96,2.73Z"/>
        </g>
        <g>
          <path class="cls-6" d="M571.98,365.24c-.3,0-.61-.03-.92-.09-2.71-.51-4.5-3.12-4-5.83,3.15-16.9,4.75-34.19,4.75-51.4,0-59.93-18.75-117.03-54.22-165.14-1.64-2.22-1.17-5.35,1.06-6.99,2.22-1.64,5.35-1.17,6.99,1.06,36.75,49.84,56.17,109,56.17,171.08,0,17.82-1.66,35.73-4.92,53.24-.45,2.4-2.55,4.08-4.91,4.08Z"/>
          <path class="cls-6" d="M14.42,365.24c-2.36,0-4.46-1.68-4.91-4.08-3.26-17.5-4.92-35.41-4.92-53.24,0-62.08,19.42-121.23,56.17-171.08,1.64-2.22,4.77-2.69,6.99-1.06,2.22,1.64,2.7,4.77,1.06,6.99-35.47,48.11-54.22,105.22-54.22,165.14,0,17.21,1.6,34.5,4.75,51.4.51,2.71-1.28,5.33-4,5.83-.31.06-.62.09-.92.09Z"/>
        </g>
      </g>
    </g>
  </g>
</svg>